{"glyphs":{"0":{"ha":688,"x_min":0,"x_max":0,"o":""},"1":{"ha":688,"x_min":0,"x_max":0,"o":""},"2":{"ha":688,"x_min":0,"x_max":0,"o":""},"3":{"ha":688,"x_min":0,"x_max":0,"o":""},"4":{"ha":688,"x_min":0,"x_max":0,"o":""},"5":{"ha":688,"x_min":0,"x_max":0,"o":""},"6":{"ha":688,"x_min":0,"x_max":0,"o":""},"7":{"ha":688,"x_min":0,"x_max":0,"o":""},"8":{"ha":688,"x_min":0,"x_max":0,"o":""},"9":{"ha":688,"x_min":0,"x_max":0,"o":""}," ":{"ha":345,"x_min":0,"x_max":0,"o":""}," ":{"ha":345,"x_min":0,"x_max":0,"o":""},"!":{"ha":456,"x_min":0,"x_max":0,"o":""},"\"":{"ha":456,"x_min":0,"x_max":0,"o":""},"#":{"ha":906,"x_min":0,"x_max":0,"o":""},"$":{"ha":688,"x_min":0,"x_max":0,"o":""},"%":{"ha":1092,"x_min":0,"x_max":0,"o":""},"&":{"ha":1141,"x_min":0,"x_max":0,"o":""},"'":{"ha":235,"x_min":0,"x_max":0,"o":""},"(":{"ha":514,"x_min":0,"x_max":0,"o":""},")":{"ha":514,"x_min":0,"x_max":0,"o":""},"*":{"ha":694,"x_min":0,"x_max":0,"o":""},"+":{"ha":688,"x_min":0,"x_max":0,"o":""},",":{"ha":378,"x_min":0,"x_max":0,"o":""},"-":{"ha":454,"x_min":0,"x_max":0,"o":""},"­":{"ha":454,"x_min":0,"x_max":0,"o":""},".":{"ha":378,"x_min":0,"x_max":0,"o":""},"/":{"ha":386,"x_min":0,"x_max":0,"o":""},":":{"ha":378,"x_min":0,"x_max":0,"o":""},";":{"ha":378,"x_min":0,"x_max":0,"o":""},";":{"ha":378,"x_min":0,"x_max":0,"o":""},"<":{"ha":688,"x_min":0,"x_max":0,"o":""},"=":{"ha":688,"x_min":0,"x_max":0,"o":""},">":{"ha":688,"x_min":0,"x_max":0,"o":""},"?":{"ha":507,"x_min":0,"x_max":0,"o":""},"@":{"ha":1369,"x_min":0,"x_max":0,"o":""},"A":{"ha":879,"x_min":0,"x_max":803,"o":"m 326 1074 l 336 1074 q 353 1058 353 1074 q 331 895 340 1058 q 326 879 328 895 l 334 846 l 331 822 q 334 814 334 817 l 350 814 q 361 844 353 814 q 380 890 369 847 q 410 955 399 901 q 426 960 418 960 q 434 952 430 960 l 434 949 q 412 903 434 940 l 412 901 l 426 892 q 477 925 467 892 q 499 944 477 942 q 521 917 521 934 q 507 879 507 884 l 507 863 q 502 822 507 848 l 505 822 q 532 873 513 822 q 648 966 591 966 q 700 930 700 959 q 681 811 689 901 q 678 735 678 764 q 675 730 678 730 l 678 716 l 678 578 q 760 564 678 571 q 803 513 803 544 l 803 496 q 741 423 803 476 q 757 366 757 386 l 757 355 q 711 274 757 311 q 648 263 682 263 l 583 263 q 543 236 569 245 q 350 87 398 106 q 266 0 300 50 l 250 0 l 250 5 q 317 84 250 24 q 382 136 318 88 q 467 206 402 159 l 477 201 q 526 266 477 219 l 521 269 q 505 266 519 269 l 347 323 q 182 382 236 382 q 92 328 164 382 q 38 301 46 301 q 11 331 11 311 l 11 334 q 14 336 11 336 l 11 342 l 11 350 q 73 396 22 378 q 195 448 144 434 q 282 507 280 500 q 285 515 282 510 q 271 600 277 600 q 212 502 218 524 l 203 502 q 193 540 193 502 l 193 543 q 222 600 193 548 q 266 667 222 608 l 298 732 q 317 884 298 749 q 309 920 317 892 q 317 928 313 920 l 317 955 q 323 996 317 970 q 320 1039 320 1017 l 317 1039 l 304 1020 l 301 1020 l 298 1034 q 326 1074 298 1060 m 491 700 l 494 686 q 524 760 498 688 q 556 789 524 789 l 559 789 q 591 765 591 789 q 570 708 591 760 l 570 705 q 618 694 570 697 q 637 689 618 689 q 673 933 647 689 q 654 941 663 941 q 521 811 566 941 q 491 700 494 755 m 472 890 q 358 711 472 882 q 334 632 334 666 l 334 545 q 353 540 353 545 q 323 445 334 508 l 320 445 q 288 486 302 445 l 282 486 q 182 412 182 415 l 182 407 l 195 407 q 388 336 204 407 q 537 296 388 317 l 553 296 q 675 418 578 296 l 675 426 q 662 437 675 430 q 635 407 639 407 l 629 407 q 567 467 602 407 l 548 472 q 456 445 480 472 q 439 439 447 439 l 431 439 q 401 469 401 444 l 401 472 q 456 515 401 496 l 458 540 q 453 586 458 555 q 366 551 378 551 l 366 553 q 426 594 374 568 q 456 654 456 606 q 467 716 456 673 q 469 765 467 727 l 467 792 q 472 825 472 811 l 472 860 q 477 887 472 865 l 472 890 m 399 871 q 347 776 399 867 q 342 757 342 765 l 345 757 q 418 860 385 802 q 410 871 414 871 l 399 871 m 179 811 l 184 803 q 155 765 155 782 q 168 743 155 758 l 168 735 q 136 697 157 697 q 0 754 58 697 l 0 760 q 165 808 94 776 q 179 811 170 811 m 496 643 q 540 681 540 656 l 540 703 l 537 722 l 532 722 q 499 656 522 722 q 496 643 496 656 m 567 624 q 586 559 567 579 l 624 570 q 637 651 631 598 q 632 659 635 659 q 567 624 567 644 m 486 583 l 488 564 q 486 540 486 554 l 491 537 l 499 537 q 548 556 511 544 l 551 562 q 545 586 545 579 l 545 610 q 534 618 545 614 q 486 583 486 606 m 678 537 q 673 507 673 526 l 673 494 q 692 461 673 461 l 705 458 q 738 510 718 458 q 678 537 738 537 m 600 524 q 610 502 604 511 q 621 510 621 506 l 621 518 l 618 532 q 600 524 600 529 m 510 483 l 510 477 q 562 491 557 484 q 553 507 558 507 q 510 483 510 486 m 629 312 l 629 307 l 632 307 q 678 355 678 328 l 678 358 l 675 358 q 629 312 670 358 z "},"B":{"ha":747,"x_min":95,"x_max":681,"o":"m 247 1098 l 437 1098 l 437 1095 q 391 1068 419 1068 l 380 1068 q 347 1084 369 1077 q 336 1065 336 1069 q 380 1022 347 1022 q 391 1003 391 1015 q 382 987 385 987 q 410 946 382 981 q 412 930 412 932 q 347 813 412 875 q 358 802 350 804 q 505 827 396 816 q 591 873 538 835 l 613 873 q 624 851 624 869 q 608 783 615 792 q 545 759 555 772 l 540 759 q 515 762 530 759 q 494 756 505 756 q 437 778 452 756 q 382 781 419 778 l 363 775 l 363 762 q 439 564 383 684 q 553 398 481 473 l 556 398 q 562 404 562 398 l 562 425 q 532 585 562 498 q 540 615 532 589 q 534 621 534 615 l 534 629 q 540 640 540 635 q 529 669 529 661 l 529 680 q 545 726 529 691 l 548 726 q 572 634 572 690 q 567 629 567 633 l 567 626 q 589 593 589 605 q 583 574 589 574 q 605 555 583 570 l 608 550 q 605 526 605 535 q 624 474 618 526 q 681 379 681 402 l 681 376 q 670 347 681 370 l 673 330 l 673 325 q 646 317 673 318 q 513 395 545 317 q 358 610 461 474 q 298 751 326 672 q 288 764 290 764 q 146 686 264 764 l 144 680 q 212 653 160 668 q 266 607 266 628 q 193 523 266 559 q 187 504 187 512 q 231 425 208 442 q 201 385 231 385 q 157 330 157 346 q 250 186 218 224 q 260 162 260 174 l 260 159 q 225 111 260 144 q 206 73 206 84 l 206 67 q 282 2 206 48 q 315 -47 315 -33 q 190 -182 315 -56 q 133 -223 155 -223 l 127 -223 q 117 -204 117 -218 l 117 -196 q 144 -153 117 -166 q 187 -82 144 -130 q 212 -22 212 -35 l 212 -20 q 182 29 212 -7 q 157 100 157 81 q 171 178 171 171 q 130 262 171 207 q 117 314 122 286 q 160 431 117 349 q 168 458 168 446 q 160 496 160 490 q 165 534 165 516 q 149 550 150 544 l 152 564 q 106 637 142 585 q 95 718 106 675 q 171 819 118 791 q 244 924 224 876 l 239 927 q 184 886 199 886 l 182 886 q 138 954 143 886 q 176 962 143 960 q 231 992 231 981 q 187 1030 187 992 q 247 1095 187 1044 l 247 1098 z "},"C":{"ha":949,"x_min":0,"x_max":814,"o":"m 505 882 q 589 860 564 868 q 632 817 632 819 l 632 811 q 545 773 632 803 q 263 627 283 661 l 263 621 q 307 602 306 608 l 307 600 q 266 543 307 587 l 266 540 q 331 524 266 532 q 396 548 336 524 q 678 594 547 594 q 814 524 773 594 l 814 472 q 781 288 806 401 q 697 49 781 198 q 564 0 638 0 l 521 0 q 410 62 503 0 q 399 65 405 65 q 339 57 359 57 q 320 71 339 63 l 309 68 q 203 127 257 68 l 203 133 l 212 133 q 255 122 252 122 q 260 130 258 130 q 241 350 241 263 q 222 426 241 426 l 217 426 q 109 355 136 400 q 57 288 101 332 l 52 277 q 103 255 52 260 q 109 239 109 246 l 106 239 l 168 90 l 168 79 q 160 68 164 68 l 152 68 q 76 95 76 82 q 5 217 31 144 l 0 252 q 76 393 0 289 q 187 578 127 485 q 206 629 206 621 q 98 705 142 667 l 98 713 l 111 716 l 130 711 q 377 803 178 711 q 494 860 480 832 l 491 873 l 491 879 l 505 882 m 543 456 l 543 393 q 551 326 543 377 l 551 206 q 562 100 551 100 l 570 100 q 659 182 605 100 q 697 315 678 222 q 711 342 711 329 l 711 374 q 722 410 711 385 q 719 439 719 433 q 724 464 724 460 l 711 461 q 705 467 705 461 q 716 488 716 483 q 578 518 648 517 l 570 518 q 543 456 543 518 m 326 396 q 336 391 332 391 q 393 415 378 415 l 401 415 q 464 385 420 415 l 464 377 q 434 336 464 366 q 477 320 434 328 l 480 320 q 488 328 484 320 q 483 358 488 332 q 488 366 486 366 q 483 412 483 398 q 486 448 486 435 l 475 488 q 469 494 475 494 q 407 445 466 494 q 377 439 378 439 l 377 450 q 423 477 395 452 l 423 488 q 415 494 423 494 q 328 456 328 475 q 326 396 328 444 m 326 315 l 326 312 q 331 307 326 307 l 334 307 q 350 336 350 322 l 350 339 l 336 339 q 326 315 326 336 m 336 222 q 326 198 326 219 l 326 176 q 336 136 326 136 q 393 165 351 136 q 442 174 421 174 q 486 168 447 174 q 491 231 491 182 l 491 269 l 477 271 q 361 222 440 244 l 336 222 z "},"D":{"ha":1193,"x_min":0,"x_max":1175,"o":"m 627 966 l 632 966 q 703 920 703 958 l 703 917 q 632 760 703 880 l 600 694 q 648 635 600 686 q 651 624 648 629 q 648 581 648 596 l 648 562 l 651 562 q 800 654 661 562 q 822 670 822 666 l 822 694 q 792 825 822 806 q 768 841 768 837 q 803 852 768 850 l 814 852 q 901 814 901 846 q 903 806 903 814 l 903 792 q 892 719 903 777 q 895 705 895 714 l 898 705 q 974 741 913 718 q 1061 779 1029 779 q 1123 760 1090 768 q 1175 716 1175 733 q 1055 656 1175 705 q 949 637 1013 637 q 917 648 947 637 l 909 648 q 892 616 892 639 l 892 564 q 887 526 892 547 q 892 505 892 516 l 892 496 q 890 483 892 488 q 922 277 909 277 q 933 127 933 205 q 909 79 928 79 l 906 79 q 681 182 797 94 q 635 228 677 182 q 632 220 632 222 q 637 119 637 140 l 637 111 q 600 5 637 38 l 594 5 q 467 144 562 5 q 426 296 426 224 q 420 315 420 296 l 412 315 q 388 255 406 311 q 241 41 293 94 q 168 0 214 17 l 160 0 q 109 92 129 0 q 155 239 131 194 q 222 445 222 386 q 241 521 241 498 l 239 534 l 231 534 q 114 461 215 534 q 68 450 87 450 q 0 505 0 462 l 0 518 q 22 548 0 548 l 35 534 q 231 613 214 613 q 247 616 247 613 q 331 543 294 616 l 331 534 q 274 353 274 357 q 206 187 206 211 l 206 168 l 212 168 q 385 448 326 249 q 439 543 406 498 q 486 675 473 652 l 491 678 l 494 673 l 494 665 q 488 643 488 646 l 488 632 l 491 616 q 477 532 483 582 l 480 532 q 510 629 490 532 q 540 727 532 673 q 629 890 621 827 q 600 920 625 920 q 578 917 585 917 l 578 920 q 627 966 578 958 m 250 936 q 345 873 293 936 l 345 860 q 309 836 345 850 q 296 825 309 832 l 288 825 l 239 857 q 250 898 250 890 l 250 906 q 244 933 250 911 l 250 936 m 632 486 q 640 453 635 465 l 659 456 l 665 456 q 757 423 727 456 q 800 334 800 378 l 800 328 q 738 277 800 296 q 678 296 696 296 q 659 298 670 296 l 659 307 q 713 339 713 313 l 713 353 q 673 418 700 418 l 670 418 q 632 393 632 418 l 632 347 q 741 225 632 267 q 811 214 776 214 q 854 222 854 214 q 833 526 841 258 q 819 608 833 551 q 770 581 810 608 q 635 488 635 518 q 632 486 632 488 m 559 581 l 559 556 q 562 553 559 553 q 545 529 562 547 q 540 494 545 511 l 540 483 q 545 477 541 477 q 570 507 570 486 q 564 581 570 541 l 559 581 m 526 361 q 543 309 543 335 q 521 244 543 262 q 496 236 501 236 l 494 236 q 464 247 489 236 q 537 160 490 178 l 559 144 q 572 201 572 144 l 572 410 l 570 429 q 526 361 542 429 z "},"E":{"ha":904,"x_min":-3,"x_max":854,"o":"m 341 1097 q 382 1053 382 1077 l 382 1050 q 268 1004 382 1036 q 227 988 246 1003 l 222 988 l 222 991 q 230 1018 222 994 l 230 1023 q 197 1037 230 1028 q 173 1056 197 1050 q 162 1083 162 1071 q 165 1091 165 1088 l 170 1091 q 200 1075 181 1075 q 341 1097 229 1075 m 287 975 q 317 871 307 968 q 309 806 309 840 l 309 801 q 314 795 309 795 q 420 847 320 795 q 593 907 582 907 q 648 912 608 912 q 707 885 707 912 l 707 861 q 621 720 707 814 q 450 644 532 644 q 281 679 416 644 l 276 679 q 241 559 267 679 l 241 557 q 319 505 319 542 q 336 456 319 475 q 409 489 350 467 q 539 516 454 516 q 580 524 539 520 q 751 486 671 524 q 838 410 790 486 q 854 337 854 364 l 854 291 q 800 153 838 222 q 772 131 794 140 q 729 101 769 117 q 677 71 726 93 l 675 58 q 702 33 702 37 l 702 25 q 696 20 702 20 l 688 20 l 588 39 q 496 17 561 27 l 488 17 q 390 66 442 17 l 385 66 l 368 63 q 347 98 355 63 q 401 134 347 128 l 409 134 q 555 79 469 127 q 580 74 568 74 q 702 128 649 74 q 767 226 745 153 q 789 323 783 276 q 753 432 789 366 q 626 494 694 494 q 574 505 594 505 l 545 505 q 441 481 501 505 l 441 462 l 428 459 q 422 465 428 465 q 417 459 417 464 q 425 454 417 454 l 425 448 q 333 402 420 444 q 303 288 317 402 q 268 193 303 261 q 214 85 268 172 q 75 -56 168 -5 q 51 -70 61 -70 l 45 -70 q 26 -40 26 -56 l 26 -35 q 64 131 35 131 l 62 136 q 100 215 62 157 q 227 380 143 296 q 257 418 257 404 q 235 484 257 466 l 233 484 q 203 478 206 478 l 197 478 q 176 535 176 490 l 176 554 q 184 630 184 618 q 176 652 182 652 l 168 652 q 45 589 163 648 q 32 587 41 587 l 21 587 q -3 627 -3 600 l -3 633 q 35 652 -3 652 q 178 714 123 694 q 224 874 196 714 q 276 975 245 947 l 287 975 m 452 806 q 455 782 455 791 q 366 739 421 749 q 303 709 330 714 l 300 703 q 357 682 336 682 q 385 679 358 679 q 531 709 445 679 q 621 779 573 730 q 669 850 650 819 l 669 863 q 640 890 669 885 l 637 890 q 547 861 629 890 q 498 839 526 861 q 452 806 456 817 m 64 79 l 64 74 q 81 22 73 22 q 230 204 149 40 q 257 326 257 306 l 257 337 q 252 342 257 342 q 195 304 243 342 q 111 201 144 271 q 78 87 100 201 q 64 79 69 79 z "},"F":{"ha":886,"x_min":43,"x_max":854,"o":"m 534 792 q 580 776 576 792 q 550 673 580 766 q 520 543 550 644 q 536 526 520 541 l 536 521 q 504 480 504 521 q 466 439 490 439 q 425 396 425 410 q 460 293 445 378 q 515 206 490 206 q 558 195 515 198 q 789 217 648 195 q 810 212 806 212 q 827 228 814 212 l 835 228 q 854 190 854 199 l 854 184 q 772 152 854 173 q 726 144 730 144 q 688 146 703 146 l 569 136 q 469 160 476 144 q 420 290 420 193 q 414 382 420 366 l 409 382 q 352 336 393 382 q 243 244 326 327 q 151 146 195 211 q 121 122 124 122 l 97 122 q 83 136 94 122 q 165 217 128 176 q 390 415 232 279 q 450 483 423 450 q 444 488 450 488 l 441 488 q 347 442 437 488 q 184 363 298 423 q 159 342 176 363 l 135 345 q 105 331 115 331 q 62 366 71 331 l 62 374 q 70 391 64 391 l 73 391 l 83 382 l 89 382 q 119 399 118 395 q 89 515 108 431 q 62 673 83 526 q 43 684 54 684 l 43 705 q 54 716 43 709 l 70 716 q 108 678 108 716 q 105 651 108 665 l 121 534 q 143 420 143 460 q 165 407 152 407 q 422 513 277 458 q 469 543 465 531 q 501 681 477 609 q 509 735 509 728 q 496 751 509 751 q 441 722 479 751 q 385 751 414 722 l 382 751 l 382 760 q 501 789 450 773 q 534 792 519 789 m 224 768 q 252 743 252 764 l 252 730 q 222 583 230 583 l 222 572 q 230 570 230 572 q 322 654 249 570 l 333 654 l 333 651 q 325 632 333 642 l 325 629 l 341 629 q 428 651 351 629 l 439 651 q 452 632 452 643 q 406 586 442 586 q 336 605 387 586 q 325 608 331 608 q 281 556 311 608 q 227 505 259 538 l 222 502 q 192 551 192 502 q 205 648 205 581 q 214 705 214 670 l 214 713 q 203 738 214 724 q 184 732 192 732 l 184 743 q 224 768 201 768 z "},"G":{"ha":813,"x_min":0,"x_max":719,"o":"m 336 895 l 342 895 q 393 827 393 880 q 434 779 393 787 q 469 773 442 779 l 513 776 q 556 743 556 769 q 521 711 545 711 l 515 711 q 486 716 512 711 q 469 713 484 716 l 450 722 q 358 635 358 690 l 358 621 q 393 605 358 614 q 420 575 420 591 q 358 486 420 549 l 369 480 l 458 510 q 543 488 530 510 l 543 483 q 396 426 529 457 q 350 391 350 415 q 347 372 350 382 l 353 326 q 505 358 380 326 l 651 374 l 659 374 q 716 345 684 374 l 719 345 l 719 326 q 627 220 702 278 q 610 209 618 220 q 640 133 627 178 l 640 119 q 572 71 640 86 q 475 33 549 33 l 467 33 q 464 35 464 33 q 442 24 452 31 q 282 98 373 24 q 217 225 235 149 l 217 231 q 222 236 218 236 q 391 103 347 103 q 472 92 437 92 l 496 92 q 556 130 556 109 q 537 146 552 146 q 505 127 513 127 l 499 127 l 499 133 l 524 165 q 534 187 534 177 q 453 244 484 244 q 388 263 403 263 q 323 244 370 263 l 320 244 q 269 293 296 244 q 252 315 256 293 l 252 320 l 263 320 q 301 301 279 309 q 312 372 306 301 q 304 391 309 391 q 171 277 229 391 q 41 5 99 174 q 35 0 41 0 l 24 0 q 5 27 5 14 l 8 38 q 0 71 0 56 q 33 138 0 97 l 133 271 q 182 323 172 315 l 184 328 l 179 331 l 174 331 l 165 326 q 138 361 144 326 q 214 423 138 408 q 279 469 237 426 q 315 521 299 475 q 317 532 317 526 l 315 545 q 269 524 308 545 q 133 439 180 484 q 119 412 124 412 l 111 412 q 76 445 87 425 l 76 448 q 174 537 76 488 q 315 602 281 602 q 320 635 317 607 q 317 643 317 640 l 309 643 q 233 589 282 608 q 182 581 199 581 q 117 613 117 581 l 117 624 q 155 808 117 667 l 155 814 l 152 833 l 157 836 q 182 768 182 823 l 182 738 q 176 665 176 672 l 176 662 q 182 656 177 656 q 312 694 258 681 q 323 708 321 708 q 317 762 317 747 q 320 808 317 777 q 317 868 317 840 q 336 895 317 882 m 380 760 q 372 732 372 746 l 372 730 q 380 722 372 726 l 388 722 q 407 732 403 722 l 407 738 q 380 760 391 760 m 448 285 l 448 279 q 575 236 574 245 l 583 236 q 613 298 583 259 l 613 304 q 594 315 609 315 q 448 285 530 313 z "},"H":{"ha":1071,"x_min":0,"x_max":838,"o":"m 222 1012 q 252 998 245 1006 q 206 930 252 994 q 95 749 177 873 q 46 678 95 745 l 46 673 l 49 673 q 109 705 59 673 q 179 749 117 705 q 347 846 229 773 q 410 876 355 846 l 426 876 q 483 857 483 871 l 483 844 q 445 803 483 841 q 382 703 410 760 q 301 564 301 598 q 355 610 336 610 q 372 613 357 610 q 429 589 405 610 q 502 659 436 589 q 575 730 502 663 l 578 746 l 572 792 q 589 798 581 798 l 605 798 q 632 789 629 789 l 635 789 q 703 836 667 819 q 765 876 745 876 l 768 876 q 833 814 833 856 l 743 665 q 803 597 743 652 q 838 515 838 537 l 838 477 q 800 410 829 410 q 741 439 786 439 l 686 461 q 646 488 661 488 q 640 477 644 477 l 643 464 l 643 426 q 640 355 643 381 q 643 312 643 328 q 640 228 640 241 q 646 149 646 179 q 640 57 640 73 l 637 57 l 640 52 l 640 27 q 629 0 634 20 l 605 0 q 594 35 600 0 l 591 35 q 594 76 591 52 q 591 372 591 279 q 594 502 591 407 q 591 513 591 507 q 594 532 594 524 q 578 678 583 577 l 572 678 q 423 507 423 554 q 374 369 413 426 q 296 288 323 288 q 266 342 271 288 q 271 396 266 363 q 269 404 269 401 l 266 404 q 193 355 245 398 l 182 353 q 168 385 168 368 l 168 393 q 222 477 168 408 q 301 616 272 573 q 391 830 370 760 l 391 833 l 388 833 q 323 798 372 833 q 244 746 313 798 q 193 708 227 743 q 81 613 185 708 q 24 583 49 583 q 0 646 0 595 q 46 741 0 688 q 187 944 121 833 q 217 1004 209 961 l 222 1012 m 643 732 q 648 651 648 673 l 648 594 q 646 556 648 579 q 700 529 646 535 q 743 518 718 518 l 751 518 q 768 526 766 518 q 716 589 768 570 q 678 643 690 589 l 678 646 l 700 697 q 722 762 700 703 q 730 803 722 774 q 643 732 643 758 m 290 445 l 293 445 q 358 526 296 445 q 374 543 362 526 l 374 548 q 369 551 369 548 q 290 448 319 522 l 290 445 m 366 480 q 328 399 342 442 l 328 388 l 331 388 q 372 480 355 405 l 366 480 z "},"I":{"ha":1094,"x_min":-4,"x_max":935,"o":"m 614 1129 l 639 1129 q 707 1094 707 1107 l 707 1086 q 650 1026 707 1067 l 617 985 l 606 985 l 595 994 q 590 988 590 993 q 606 980 606 987 l 606 975 q 509 912 583 937 q 452 842 475 912 q 422 806 432 806 q 427 787 427 789 q 414 777 414 781 q 422 763 422 768 q 395 720 420 742 q 370 665 381 680 l 370 660 l 384 657 q 438 690 402 657 q 511 739 502 739 q 541 760 523 739 q 704 831 648 831 q 780 787 780 831 q 783 785 783 787 q 753 717 783 777 l 723 641 q 739 600 739 605 l 739 568 q 753 522 742 522 l 780 522 q 791 511 784 522 l 791 508 q 780 492 791 492 q 764 497 771 497 q 745 473 745 486 l 745 465 q 769 370 745 370 q 807 315 807 344 q 780 237 788 237 l 769 237 l 761 242 l 755 242 l 755 237 q 766 223 766 224 l 766 218 q 750 182 766 207 q 796 87 789 122 l 799 87 q 831 112 817 112 l 848 112 q 856 104 852 112 q 848 79 856 99 q 861 63 852 68 l 864 63 q 869 93 869 86 q 864 142 864 136 q 888 237 876 237 l 888 245 q 875 288 881 252 l 888 304 l 888 307 l 886 307 l 872 304 l 872 307 l 875 326 q 869 342 869 335 l 869 348 q 872 378 869 359 q 856 424 856 408 q 878 435 867 435 l 883 427 l 883 421 q 872 413 883 413 l 872 410 q 918 313 897 379 q 932 291 932 306 l 932 280 q 913 267 924 267 l 913 261 q 935 231 926 261 l 935 191 q 913 74 924 102 q 878 25 880 25 l 872 25 q 861 41 867 25 l 856 41 l 856 31 q 831 -13 843 -13 l 799 -13 q 764 -24 768 -24 q 742 -21 762 -24 q 650 -111 726 -21 q 604 -138 610 -138 l 587 -138 q 582 -132 582 -138 q 647 -29 639 -65 q 669 14 654 -29 q 647 47 669 20 q 606 90 647 54 l 606 104 q 642 77 634 90 q 658 79 656 79 l 677 77 l 677 82 l 658 128 l 658 153 q 677 218 658 181 q 701 313 677 231 l 701 315 q 661 332 700 321 q 585 359 619 359 q 571 326 574 349 q 552 304 559 326 l 547 307 l 538 307 q 533 302 533 307 q 522 313 525 304 q 525 323 525 317 q 509 310 511 323 l 538 234 l 538 226 q 509 166 538 216 q 473 87 489 87 q 452 82 463 82 l 446 82 q 403 125 427 82 q 370 169 387 125 l 370 172 q 376 182 376 178 q 362 212 362 203 l 362 226 q 422 294 390 294 l 425 299 q 419 315 419 308 q 460 378 453 376 l 465 378 q 468 375 468 378 q 476 378 473 378 l 476 383 l 471 391 q 487 427 481 399 q 503 465 503 444 l 509 465 q 517 454 517 465 l 514 440 l 522 440 l 522 462 l 538 481 q 533 497 533 490 l 625 663 l 620 673 l 576 646 l 574 646 q 566 665 568 646 l 563 665 q 557 657 557 665 q 563 641 563 648 q 544 627 558 641 l 522 627 q 427 532 522 616 q 338 437 338 473 q 313 356 330 421 q 308 348 308 356 q 313 323 313 330 q 270 296 313 296 q 262 310 264 310 q 243 280 243 300 l 240 280 q 218 294 231 292 l 218 296 q 240 315 240 308 l 235 318 q 227 315 229 315 l 227 321 l 229 334 l 224 334 l 216 329 q 210 334 210 329 l 210 340 l 213 345 l 210 345 q 151 340 204 345 q 58 402 85 340 q 47 410 47 402 l 47 416 q 104 446 51 425 q 213 530 175 518 q 259 587 245 559 q 273 592 264 587 l 270 606 l 270 614 q 292 682 270 623 q 302 722 292 692 l 302 725 q 297 730 302 730 l 286 730 q 126 625 151 625 l 113 625 q 1 701 90 625 q -4 714 -3 701 q 42 733 -4 722 q 189 817 104 780 q 330 926 268 872 q 411 964 384 956 q 547 1091 414 996 q 614 1129 589 1129 m 807 511 l 810 511 q 845 492 840 500 q 864 446 856 477 q 842 418 842 440 q 796 481 834 418 l 796 486 l 802 486 l 815 478 l 815 481 q 802 500 815 484 l 802 505 q 807 511 802 511 m 674 467 q 658 440 661 440 q 650 448 658 444 l 647 448 l 647 446 l 652 435 q 639 410 652 421 q 682 394 639 400 q 696 421 696 398 q 674 467 696 467 m 270 288 l 286 288 q 292 283 292 288 l 286 264 l 289 264 q 297 283 294 264 l 308 283 q 286 193 308 273 q 278 158 286 158 l 281 144 q 262 134 277 134 l 251 134 q 245 139 245 134 l 245 147 q 262 155 245 155 q 251 177 251 167 l 251 185 q 267 191 251 191 l 267 196 q 254 199 258 196 l 256 204 l 254 218 q 259 226 259 218 l 256 250 q 264 261 264 250 l 259 280 l 270 288 z "},"J":{"ha":803,"x_min":0,"x_max":746,"o":"m 187 1053 l 193 1053 q 231 920 212 1011 q 255 879 246 880 q 285 909 259 879 q 426 993 347 951 q 450 1004 438 1004 l 453 1004 q 469 979 469 994 q 461 955 461 964 q 464 947 464 949 q 418 917 464 931 q 293 852 350 876 q 274 822 274 831 q 298 803 282 803 l 304 803 q 458 868 315 814 q 570 922 536 909 q 578 930 570 926 l 583 930 l 597 928 q 605 947 605 938 q 602 955 602 952 q 635 1025 616 964 q 632 1034 632 1031 l 637 1036 l 643 1036 q 684 998 684 1026 q 613 890 684 958 l 600 892 q 532 825 574 825 q 336 751 424 779 q 334 743 334 746 q 342 694 342 714 l 331 694 q 290 722 319 694 q 255 730 267 725 q 179 654 255 703 q 95 515 157 633 q 92 513 92 515 l 95 499 q 71 467 92 499 l 76 458 l 76 456 l 71 448 l 71 380 q 79 372 71 376 q 293 521 134 372 q 404 610 360 587 q 556 692 453 652 l 559 692 l 559 686 q 529 670 559 683 q 477 627 477 637 q 442 548 477 617 q 418 532 418 541 q 423 521 420 521 q 412 502 423 517 q 426 496 421 496 q 575 583 475 496 q 586 589 582 589 l 594 589 q 665 654 602 605 q 681 689 681 682 q 665 708 681 694 q 670 713 665 713 q 746 678 746 710 l 746 651 q 610 521 733 603 l 605 521 q 602 529 602 526 l 600 529 q 553 491 579 498 q 529 472 530 477 l 529 467 q 570 439 529 463 l 570 434 q 540 393 564 393 l 540 391 q 627 353 627 372 q 654 274 654 311 q 591 103 654 157 q 578 76 591 93 q 586 60 586 66 q 548 43 553 43 q 445 73 471 61 q 412 138 412 97 l 412 155 q 453 250 412 196 l 453 260 l 450 274 l 445 274 q 382 122 403 230 q 336 0 382 37 l 323 0 q 271 52 298 0 l 271 73 q 363 288 320 248 q 453 391 453 370 l 450 391 q 448 393 448 391 l 434 391 q 380 415 380 391 q 385 469 385 454 q 382 477 382 475 l 380 477 q 334 426 380 458 q 274 377 321 426 q 222 334 256 377 q 136 263 159 290 q 92 255 118 255 l 81 255 q 49 315 66 260 q 19 358 19 337 q 27 385 19 370 q 22 410 22 403 q 33 423 29 423 q 27 439 27 432 q 38 461 27 461 l 43 458 q 60 477 60 465 q 43 488 43 485 q 92 589 65 541 q 228 751 92 614 q 244 762 228 759 l 244 765 q 217 795 228 794 q 106 708 177 783 q 73 686 89 686 l 68 686 q 3 751 3 705 q 0 770 0 755 q 11 803 3 803 l 19 803 q 43 787 36 787 q 176 852 71 787 q 195 863 186 863 q 198 903 198 890 l 187 1042 l 187 1053 m 513 331 q 537 274 521 288 q 570 225 570 246 q 567 163 567 176 q 575 149 569 149 l 589 149 q 613 258 597 149 q 616 279 616 273 q 570 347 616 347 q 564 350 570 350 q 513 331 513 345 z "},"K":{"ha":681,"x_min":0,"x_max":648,"o":"m 282 1112 l 296 1112 q 388 1047 364 1112 l 388 1031 q 382 944 382 951 q 407 925 382 929 q 442 901 437 911 l 442 868 q 385 849 442 861 q 369 732 373 849 l 339 513 l 345 510 q 391 529 377 529 l 396 529 q 488 502 484 511 q 491 499 491 502 q 467 480 485 480 l 458 480 l 439 483 q 355 437 439 465 q 328 396 328 437 q 326 361 326 378 l 331 358 q 404 369 351 363 q 445 355 433 369 q 494 388 455 376 l 505 388 q 648 309 648 357 l 648 307 q 562 279 623 279 q 491 315 557 279 q 477 317 486 317 l 475 317 q 415 293 415 304 l 415 290 q 477 241 422 274 q 627 155 494 227 l 629 149 q 545 79 629 127 q 537 76 540 76 q 529 79 534 76 l 515 76 q 412 79 450 79 q 179 5 333 79 q 141 0 150 0 l 100 0 q 46 30 77 0 q 3 76 3 62 l 3 79 q 41 182 23 182 q 62 247 41 218 q 111 309 92 309 q 119 304 119 307 q 95 179 119 289 q 92 138 92 168 l 92 90 q 103 65 92 68 l 111 65 q 258 109 127 65 q 410 136 357 136 q 467 146 414 142 l 469 152 q 415 212 469 171 q 353 266 385 254 q 342 269 348 269 q 301 252 340 269 l 296 252 q 274 288 282 258 q 277 312 277 302 l 277 320 q 252 345 277 322 l 252 353 q 263 391 263 365 l 263 393 q 255 399 263 399 q 87 331 104 331 l 81 331 q 5 391 43 331 q 0 404 1 391 l 0 423 q 5 429 1 429 q 33 401 28 401 q 46 399 41 401 q 228 458 61 399 q 255 483 255 477 l 165 524 q 163 526 163 524 l 163 529 q 212 556 166 536 l 220 567 l 220 572 q 179 659 220 592 q 152 741 161 741 l 141 741 l 122 727 l 114 727 q 38 787 38 759 q 33 833 35 787 q 60 865 33 840 l 60 860 l 57 833 l 71 825 q 122 849 122 842 q 103 890 122 862 q 76 1020 96 909 q 54 1053 62 1050 l 43 1044 l 38 1044 l 35 1058 q 71 1085 35 1080 l 79 1085 q 163 1001 105 1085 q 203 873 187 896 q 323 917 323 910 q 331 977 331 962 q 307 1096 326 1096 l 296 1096 q 233 1042 253 1069 q 214 1031 229 1031 q 212 1034 214 1034 q 282 1112 252 1112 m 222 792 l 222 787 q 244 727 239 727 l 252 727 l 252 754 q 271 765 257 765 q 304 722 288 765 l 309 719 q 317 779 312 730 q 312 830 315 830 q 222 792 222 809 z "},"L":{"ha":765,"x_min":0,"x_max":939,"o":"m 382 1435 q 410 1345 410 1392 q 366 1240 410 1240 q 347 1237 363 1237 q 222 1430 288 1237 l 225 1430 q 382 1435 250 1430 m 629 1267 l 637 1267 q 713 1221 713 1251 q 654 1161 713 1206 q 613 1120 625 1120 q 610 1123 613 1123 q 613 1115 613 1118 q 510 1047 597 1077 q 461 985 480 1047 q 429 944 438 944 l 431 925 l 420 914 l 426 906 l 426 898 q 399 854 426 878 q 374 800 387 814 l 374 798 l 388 795 l 393 795 q 464 841 407 795 q 532 879 509 879 q 608 933 532 894 q 711 968 644 958 q 787 925 787 963 l 787 920 q 757 849 787 911 l 730 781 l 730 776 q 746 727 746 739 l 746 689 q 760 659 750 659 l 779 659 q 795 651 795 658 l 795 635 q 789 629 795 629 l 770 635 q 751 610 751 623 l 751 583 q 776 502 751 519 q 814 453 814 483 q 789 374 800 401 l 779 372 l 765 380 q 760 374 760 379 q 773 358 770 370 q 757 315 773 353 q 795 241 768 315 q 806 212 802 212 l 806 214 q 803 225 803 219 q 844 250 825 250 l 852 250 q 863 236 857 248 q 854 214 854 222 q 865 201 862 201 l 871 201 q 876 231 874 225 q 871 285 871 250 q 895 382 871 326 q 884 396 890 384 l 887 407 q 879 420 882 420 q 895 442 879 424 l 890 445 q 879 442 885 442 l 879 445 l 882 464 q 876 469 876 464 l 876 513 q 863 556 863 548 l 863 559 q 873 570 863 563 l 884 570 q 890 564 890 569 l 890 559 q 879 551 890 551 l 879 545 q 925 448 903 514 q 939 426 939 441 q 917 401 935 401 l 917 399 q 939 377 928 399 l 939 320 q 917 214 926 214 q 884 163 911 196 l 873 163 q 863 179 873 174 l 852 138 q 841 125 852 130 l 806 125 q 768 114 775 114 l 762 114 q 751 117 756 114 q 662 33 731 117 q 610 0 619 0 l 589 0 l 589 8 q 675 152 629 45 q 648 195 648 191 q 610 239 610 218 l 616 239 q 651 212 642 222 l 659 217 q 681 212 671 217 q 684 220 684 217 q 665 258 684 227 q 662 279 665 260 q 684 361 662 308 q 708 453 684 370 q 597 496 624 491 q 578 464 583 496 q 556 442 568 464 l 543 445 q 537 439 543 439 q 529 448 533 439 l 532 461 q 515 448 515 461 q 543 377 515 438 q 545 363 545 372 q 513 304 542 344 q 464 220 501 220 l 450 220 q 410 260 432 220 q 377 309 391 260 l 382 317 l 382 320 q 366 358 366 340 q 410 426 366 378 q 429 434 427 426 q 426 456 426 449 q 442 486 431 456 q 461 513 446 486 l 467 515 q 475 513 472 513 q 483 515 480 515 l 483 518 l 475 529 l 475 532 q 491 562 491 532 q 510 602 500 564 l 515 602 q 521 597 521 602 l 521 575 l 524 575 q 532 605 529 575 q 543 616 536 605 q 540 637 540 631 l 629 795 l 629 803 q 624 808 629 808 l 621 808 l 583 784 l 581 784 q 570 803 576 784 q 562 798 562 800 q 567 781 567 789 l 567 776 q 545 762 564 776 l 534 765 q 513 741 530 765 q 450 684 507 741 q 342 572 342 608 q 312 486 322 496 q 320 461 320 469 q 282 431 320 440 q 269 448 274 433 q 247 418 258 448 l 241 418 q 225 429 241 429 l 225 431 q 244 448 225 434 l 244 456 l 241 456 q 233 453 236 453 l 231 458 q 236 472 236 467 l 231 472 l 222 467 l 220 467 q 214 472 214 467 l 220 483 l 217 483 q 152 477 174 477 q 65 537 92 477 q 54 543 58 543 l 54 553 q 111 583 58 562 q 220 667 183 657 q 263 722 248 692 l 279 730 q 274 749 274 741 l 298 822 q 309 860 298 831 q 301 868 309 864 q 198 795 289 868 q 127 760 136 760 q 0 846 90 760 q 46 868 0 861 q 184 949 93 907 q 326 1055 267 1002 q 418 1101 372 1085 q 600 1261 418 1137 q 629 1267 610 1267 m 600 1131 l 597 1126 l 602 1123 l 608 1123 q 600 1131 608 1127 m 814 648 q 860 613 860 632 q 868 583 868 595 l 868 581 q 849 556 849 581 l 846 556 q 803 616 841 556 l 803 624 l 806 624 l 819 616 l 822 616 l 822 618 q 806 637 808 637 q 814 648 810 648 m 665 578 l 656 583 l 651 583 l 656 575 l 656 559 l 646 548 l 646 545 q 684 532 646 537 l 689 532 q 700 551 700 536 l 700 564 q 686 605 700 596 q 667 578 676 605 l 665 578 m 282 426 l 290 426 q 298 418 294 426 q 293 401 293 409 l 293 399 q 304 420 300 399 l 312 420 l 312 415 q 298 355 312 401 q 290 301 293 336 q 285 293 288 301 l 288 279 q 269 271 277 271 l 252 271 l 252 285 q 266 293 252 292 l 255 312 q 274 328 255 328 l 274 334 q 260 339 260 334 q 263 342 260 342 l 260 347 q 266 363 260 355 l 263 380 l 263 385 l 271 396 q 266 420 266 414 q 282 426 275 426 m 252 206 q 260 195 260 206 q 255 182 255 186 q 263 174 259 182 q 258 157 258 165 q 285 138 285 157 q 271 103 279 118 q 277 73 277 92 l 277 71 q 269 62 277 66 l 260 62 q 250 98 252 62 q 228 127 228 113 q 250 190 244 184 l 247 203 l 252 206 z "},"M":{"ha":949,"x_min":0,"x_max":827,"o":"m 621 1131 l 627 1131 q 659 1112 637 1131 l 662 1112 q 665 1115 665 1112 q 727 1044 727 1090 q 697 898 716 1011 q 689 879 692 897 q 703 860 703 863 q 678 844 703 853 q 659 776 667 827 l 665 776 q 705 830 686 795 q 738 876 725 844 q 768 949 751 876 l 773 952 l 776 952 q 787 933 779 952 l 792 933 q 798 939 798 933 l 795 952 l 800 955 l 811 955 q 814 947 811 952 l 811 936 q 827 901 827 908 l 827 876 q 798 814 827 865 l 789 814 q 781 827 782 814 l 776 827 q 770 822 770 827 l 773 798 q 735 760 773 792 l 732 749 q 760 713 760 728 q 678 567 743 670 q 651 488 651 497 l 654 488 q 700 534 700 496 q 735 545 710 545 l 738 545 q 825 526 809 534 l 827 521 l 827 513 q 708 442 812 491 q 692 429 692 431 l 692 423 q 711 404 698 410 l 716 404 q 749 426 716 426 l 751 426 q 822 391 822 420 l 822 380 q 735 307 739 323 l 735 301 q 768 282 735 296 q 784 258 784 265 q 776 247 780 258 l 779 231 q 757 193 761 193 l 749 193 q 713 258 727 193 l 703 269 q 678 184 695 269 q 567 0 615 0 l 551 0 q 486 46 486 22 q 491 52 486 52 l 510 52 q 534 65 534 55 q 532 127 534 91 q 581 439 532 190 q 556 453 556 448 l 564 464 l 570 461 l 583 461 q 635 627 600 486 q 648 662 640 627 l 640 667 l 637 667 q 589 621 637 654 q 513 553 549 572 q 477 518 502 518 q 434 477 450 518 q 369 399 391 408 l 361 399 q 342 437 351 399 q 426 521 342 460 q 456 540 444 540 q 467 529 456 536 q 499 591 479 591 q 570 673 533 615 q 597 705 597 689 q 586 741 586 731 q 600 833 586 790 q 597 844 597 838 l 594 844 q 494 781 494 816 q 469 770 487 770 l 461 770 l 456 773 l 456 770 l 458 746 q 439 716 458 730 l 431 716 q 412 781 418 716 q 448 827 412 786 q 518 971 454 854 q 524 982 518 982 l 529 982 q 575 944 575 968 q 532 868 556 905 q 524 852 532 865 l 529 849 l 532 849 q 602 879 602 867 q 613 909 602 893 q 624 963 624 947 l 624 979 l 635 990 q 629 1004 629 999 q 643 1088 643 1073 q 621 1126 635 1109 l 621 1131 m 217 974 l 222 974 q 255 909 238 974 l 255 895 q 250 825 250 827 l 252 819 q 244 776 244 793 q 258 765 245 770 q 277 787 277 770 l 285 787 q 342 746 342 767 q 228 681 342 717 q 212 597 212 630 q 214 567 214 573 q 206 553 209 553 q 214 526 212 544 l 220 526 q 236 534 231 534 q 239 526 239 529 q 206 442 231 488 q 203 429 206 433 q 206 391 206 406 l 206 377 q 203 328 206 354 q 206 307 206 318 l 198 293 q 222 206 222 278 q 228 190 228 206 q 203 125 212 163 l 195 125 q 127 233 165 125 q 125 255 127 245 l 130 258 l 133 258 l 163 233 q 174 252 174 238 l 174 296 q 179 320 174 302 q 168 353 168 338 l 168 363 q 171 374 168 370 q 165 396 165 385 l 179 412 q 174 418 179 418 q 144 401 174 412 q 92 363 115 363 l 84 363 q 30 336 79 336 l 11 323 l 8 323 q 0 331 4 323 l 0 336 q 38 396 0 360 q 103 450 73 412 q 165 502 159 485 q 171 662 165 551 q 125 686 171 677 q 92 727 92 712 q 119 741 92 735 l 136 738 q 152 743 144 743 l 168 743 q 206 952 182 918 q 217 974 213 974 m 616 374 q 637 369 626 369 l 646 369 q 673 401 673 369 q 651 426 673 426 l 648 426 q 616 374 616 426 m 594 304 l 597 293 q 583 171 591 269 q 586 136 586 148 l 583 136 q 586 127 586 130 l 594 127 q 662 320 662 283 l 662 336 q 624 355 662 351 q 618 366 624 359 q 600 312 603 366 q 594 304 597 312 z "},"N":{"ha":810,"x_min":0,"x_max":746,"o":"m 184 1053 l 193 1053 q 209 1009 193 1049 q 255 882 235 882 q 288 914 258 882 q 448 1006 353 957 q 467 990 463 1001 l 467 982 q 461 960 461 963 l 461 941 q 388 903 458 935 q 290 852 361 884 l 274 830 l 274 822 q 298 803 280 808 q 442 863 385 846 q 567 922 538 913 q 583 933 572 933 l 597 930 l 605 944 q 602 955 602 949 q 635 1039 635 1005 l 640 1039 q 684 1001 684 1026 q 613 890 684 964 q 600 895 604 895 q 540 827 571 827 q 334 754 393 770 l 334 751 q 342 703 334 741 q 339 694 339 697 l 334 694 q 298 716 320 694 q 252 732 292 724 q 212 681 252 704 q 133 583 146 633 l 92 515 l 92 507 l 95 502 q 71 467 85 496 q 73 456 73 462 l 68 445 q 71 388 71 410 l 71 380 q 76 374 71 374 l 81 374 q 293 524 134 374 q 439 637 361 590 q 551 694 446 645 l 553 694 q 559 689 559 694 q 483 640 483 643 l 458 583 q 420 540 444 546 l 418 534 l 420 518 l 420 515 l 412 505 l 412 502 l 426 499 q 583 591 477 499 l 589 589 l 594 589 q 662 654 594 603 l 681 689 q 665 711 681 692 l 665 713 l 681 713 q 746 678 746 713 l 746 654 q 613 524 743 616 l 602 524 q 597 532 602 532 q 532 480 589 507 l 529 475 l 529 464 q 570 437 569 444 q 540 396 570 404 q 613 372 540 391 q 651 285 651 325 l 651 277 q 594 109 651 155 q 578 73 578 77 q 583 68 583 73 l 583 62 q 548 46 583 56 l 545 46 q 453 71 478 60 q 410 146 410 94 q 453 252 410 197 l 453 260 q 445 277 450 277 q 396 184 418 249 q 372 52 382 143 q 334 0 353 14 l 326 0 q 269 57 298 0 l 269 65 q 328 241 269 87 q 434 361 336 264 q 453 391 453 389 l 448 393 l 410 393 q 380 410 387 393 q 382 477 382 454 l 382 480 l 380 480 q 328 426 380 458 q 271 377 320 426 q 220 334 254 377 q 144 274 152 286 q 90 255 144 262 q 49 315 65 255 q 19 355 19 338 l 19 361 q 24 385 19 368 q 22 415 22 404 q 30 429 28 415 q 24 442 24 437 q 33 464 24 449 l 46 461 q 57 472 50 461 l 57 483 l 43 486 l 43 491 q 62 532 43 497 q 92 591 62 542 q 222 749 92 616 q 244 765 226 758 q 222 795 227 795 l 217 795 q 92 697 180 789 q 71 686 83 690 q 0 760 0 706 l 0 779 q 19 806 0 806 q 43 789 28 789 l 46 789 q 195 868 77 789 l 195 930 l 184 1053 m 513 334 q 551 263 513 297 q 570 222 570 238 q 564 174 570 214 q 572 149 568 155 q 597 174 597 149 l 613 263 l 613 290 q 578 347 608 347 q 570 350 578 350 l 562 350 q 513 334 513 350 z "},"O":{"ha":812,"x_min":-4,"x_max":736,"o":"m 305 1151 l 319 1151 q 357 1069 335 1151 l 362 1067 l 365 1067 q 414 1072 387 1067 q 471 1048 456 1064 l 473 1042 l 473 1034 q 400 994 473 1010 q 349 942 349 981 l 349 915 q 319 863 349 903 q 297 814 297 819 l 297 812 q 408 839 359 839 l 444 839 q 473 844 447 839 l 479 844 q 547 793 513 844 q 555 771 555 777 q 498 752 547 760 q 330 668 383 681 l 319 654 l 319 652 q 335 625 321 625 q 408 660 342 625 q 454 682 431 666 l 454 684 l 460 682 q 511 687 495 687 q 519 684 514 687 l 536 687 l 541 687 q 571 652 571 687 q 408 421 566 615 q 313 253 361 357 q 259 150 300 242 q 240 131 259 131 l 240 101 q 235 87 240 87 l 237 74 l 237 41 q 243 36 238 36 l 248 36 q 349 150 297 77 l 354 153 l 362 153 q 373 128 370 153 l 378 128 q 381 134 378 134 l 378 139 l 378 150 l 381 166 l 376 180 q 452 307 387 206 q 490 348 466 340 q 517 391 490 353 q 576 435 533 435 l 593 437 q 606 427 605 432 l 612 429 l 614 429 q 647 386 640 429 q 612 250 647 308 q 585 204 612 235 q 576 199 585 201 q 574 201 576 201 l 568 193 l 568 188 q 585 169 568 169 q 631 172 616 172 q 647 161 633 172 l 666 163 q 736 96 720 139 l 736 85 q 685 -21 726 28 l 682 -21 q 677 -16 677 -21 q 712 58 712 14 q 718 87 718 58 q 639 150 693 150 q 563 147 592 147 q 528 104 538 109 l 517 104 q 498 134 498 117 l 498 142 q 541 210 498 182 q 563 229 547 220 q 568 215 568 229 l 571 215 q 576 220 576 215 l 576 242 q 595 359 595 336 q 574 405 595 396 l 571 405 q 492 315 547 405 q 476 288 492 288 q 471 283 471 288 l 471 250 q 435 207 471 229 l 416 166 q 406 150 406 166 l 403 150 l 395 155 l 389 147 q 395 131 395 138 q 359 79 395 125 q 338 52 359 71 q 308 3 327 20 q 289 -16 308 -9 q 262 -64 272 -64 l 243 -64 q 216 -94 243 -94 q 194 -105 206 -105 l 180 -105 q 145 -48 145 -68 q 161 -35 145 -43 q 224 134 186 -10 q 245 177 224 146 q 292 296 245 214 q 487 592 342 408 q 506 644 506 627 q 484 657 501 657 q 395 627 465 657 q 351 595 351 599 q 349 584 349 590 q 359 530 359 542 q 330 481 359 491 q 240 448 311 471 q 151 413 218 430 l 137 413 q 126 473 133 424 q 221 557 126 494 q 267 597 267 574 q 245 671 267 607 q 292 725 245 682 l 292 728 l 281 728 q 224 692 224 715 q 183 627 217 688 q 161 619 170 619 l 156 619 q 118 682 128 637 q 137 749 118 749 q 216 844 166 778 q 227 866 222 844 l 227 871 l 221 871 q 178 847 212 871 q 99 844 130 844 q -1 871 39 844 l -4 871 l -4 880 q 56 890 -4 888 q 199 958 90 901 q 267 1021 267 968 q 305 1151 267 1112 m 324 755 l 327 755 q 395 806 395 800 l 395 809 l 392 809 q 338 779 352 801 q 324 755 338 776 z "},"P":{"ha":945,"x_min":0,"x_max":887,"o":"m 738 892 q 768 876 768 889 q 757 779 765 834 q 760 751 760 764 q 746 681 746 717 l 746 662 l 749 656 q 814 711 814 684 l 814 713 q 776 743 776 739 q 882 757 776 751 l 887 749 l 887 746 q 860 700 887 736 q 784 627 858 682 q 732 543 732 606 l 732 524 q 757 439 732 439 q 841 393 841 429 l 841 385 q 781 282 841 358 q 757 258 778 282 q 762 252 758 252 l 768 252 q 884 206 856 252 q 887 195 887 201 l 887 171 q 806 30 887 138 l 776 0 l 735 0 l 735 3 q 803 163 803 116 l 803 174 q 768 198 803 198 q 662 168 662 183 q 621 136 635 136 q 605 203 605 157 q 643 241 605 241 q 689 269 689 250 q 765 385 765 346 q 760 391 765 391 q 722 366 750 391 q 667 334 691 359 q 578 260 600 260 q 548 320 548 276 l 548 323 q 621 404 566 373 q 694 464 694 433 q 689 494 689 475 l 689 537 l 686 543 q 621 499 635 499 q 556 581 585 511 q 553 594 553 585 q 591 705 553 604 q 605 738 596 738 l 610 738 q 618 662 616 671 q 613 591 613 646 l 613 586 q 618 581 614 581 q 700 648 700 612 q 708 811 705 670 q 692 825 692 821 l 692 849 q 732 892 692 871 l 738 892 m 339 817 q 415 765 415 786 q 328 705 415 751 q 263 570 303 686 q 250 537 263 556 q 269 507 250 522 q 309 518 286 518 l 345 518 q 437 469 405 518 q 442 439 442 458 l 442 418 q 437 345 437 352 q 445 241 445 260 q 377 11 445 52 q 355 0 368 0 l 244 0 q 220 41 220 18 q 296 52 220 48 q 363 160 363 81 q 372 244 363 196 l 372 252 q 366 258 372 258 q 288 152 292 191 q 241 79 259 79 q 182 174 218 79 q 171 187 182 184 q 138 90 163 180 q 125 73 128 73 l 114 73 q 60 149 81 73 l 60 157 q 84 255 84 212 q 117 418 106 327 q 195 591 134 466 l 206 618 l 198 618 q 92 545 184 618 l 73 532 l 71 532 q 0 583 0 551 q 87 635 12 600 q 304 781 223 745 q 339 817 304 798 m 250 412 q 258 380 258 388 l 258 374 q 203 285 258 330 q 182 206 182 228 l 182 198 q 187 193 182 193 l 195 193 l 193 206 l 193 209 q 214 247 204 247 l 228 244 l 220 255 l 220 263 q 225 269 220 269 l 228 269 l 236 263 l 239 263 q 233 279 233 272 l 290 355 l 288 380 q 304 388 298 388 q 307 385 304 385 q 317 401 312 401 q 342 347 340 397 l 347 345 q 369 391 369 378 q 339 469 356 469 l 336 469 q 252 420 307 469 q 250 412 250 415 z "},"Q":{"ha":1095,"x_min":0,"x_max":1047,"o":"m 743 1115 l 762 1115 q 803 1090 794 1115 q 719 955 772 1024 l 719 947 l 779 971 l 803 971 q 860 925 834 971 q 879 892 879 908 l 879 884 q 730 648 879 834 q 719 627 724 648 q 727 624 724 624 q 808 646 772 646 l 811 646 q 925 602 925 646 q 854 564 925 574 q 825 553 854 561 l 825 548 q 868 515 847 515 q 925 483 892 515 l 925 477 q 914 458 925 468 q 955 426 955 431 q 958 415 958 421 q 922 380 958 404 l 922 369 q 944 293 944 346 q 949 271 949 293 q 789 182 949 219 q 713 168 778 177 q 686 220 696 168 l 686 236 q 732 285 686 256 q 765 328 765 317 l 762 328 q 735 323 750 323 q 713 366 719 323 q 746 415 722 415 q 765 431 765 428 l 765 439 l 751 437 q 719 461 743 450 l 719 472 q 781 507 781 472 l 781 510 q 768 526 781 526 q 754 524 764 524 q 751 532 751 529 l 754 545 l 743 553 l 738 553 l 681 540 q 670 559 670 543 l 665 559 q 637 494 665 545 q 605 374 605 382 q 624 260 605 336 q 640 127 628 247 q 654 57 654 95 q 637 0 648 0 l 635 0 q 564 90 599 0 q 540 220 540 182 q 594 507 540 401 q 597 518 594 513 q 578 540 597 522 l 578 543 q 589 570 589 558 q 578 605 589 572 q 589 613 578 612 q 629 608 604 613 q 662 637 633 608 l 675 640 l 675 643 q 713 722 675 684 q 806 884 806 849 l 806 898 q 800 903 806 903 l 798 903 q 697 849 783 888 q 613 776 637 822 q 589 762 599 762 l 583 762 q 572 781 572 767 l 572 784 q 616 920 591 920 q 692 1020 646 939 q 730 1112 724 1085 l 743 1115 m 239 1058 l 241 1058 q 328 1023 328 1042 q 339 1004 334 1023 q 263 787 315 975 l 263 784 q 353 757 263 775 q 382 716 382 739 l 372 697 l 374 686 q 347 632 365 632 q 260 681 319 636 l 258 681 q 228 518 245 681 q 222 415 222 452 q 225 358 225 368 l 217 331 q 225 317 222 331 q 214 301 225 315 q 220 285 214 294 l 217 274 q 222 260 222 265 q 214 252 218 260 l 233 141 l 233 65 q 247 14 247 26 q 236 0 241 1 l 206 0 q 141 71 178 0 l 141 92 q 163 157 163 141 l 168 195 q 165 206 165 200 q 179 209 170 209 l 171 222 l 174 239 q 165 260 165 252 l 165 266 q 190 277 169 277 l 198 277 l 198 279 q 176 320 182 294 q 184 342 184 334 l 184 347 q 168 372 173 360 q 182 396 182 393 l 168 423 l 171 450 l 171 510 q 168 583 171 533 l 165 583 q 109 515 151 577 q 60 442 89 467 l 57 442 q 3 505 9 442 q 0 548 0 526 q 52 627 0 574 q 87 700 75 700 l 92 700 q 133 635 128 661 l 138 635 q 174 684 174 648 q 201 803 184 784 q 195 825 201 808 q 228 947 195 870 l 247 1034 q 239 1058 239 1051 m 1020 594 l 1023 594 q 1047 515 1023 546 l 1047 496 q 1036 475 1047 487 l 1036 456 q 1028 453 1034 456 q 974 515 974 473 q 966 524 970 515 l 966 526 l 974 537 l 974 540 l 968 537 l 952 553 l 952 556 q 963 564 952 560 q 979 559 974 559 q 1020 594 1003 594 m 307 505 q 326 475 322 505 l 326 456 q 309 445 326 450 q 282 486 294 445 q 307 505 292 505 z "},"R":{"ha":476,"x_min":0,"x_max":448,"o":"m 49 787 l 52 787 l 141 760 q 241 711 241 745 q 244 703 244 711 q 217 648 225 649 q 41 670 144 662 q 24 678 24 675 q 65 694 24 684 l 71 703 q 43 770 62 740 l 43 781 q 49 787 44 787 m 0 507 q 217 491 0 497 q 290 437 290 481 q 288 415 288 418 q 290 407 290 410 q 203 244 256 324 q 138 165 163 190 l 130 152 q 220 98 147 134 q 225 90 220 90 q 239 95 234 95 q 382 43 263 80 q 442 11 399 30 l 448 3 l 448 0 l 214 0 q 52 144 52 46 q 92 176 52 169 l 95 187 l 92 201 q 182 342 182 314 q 187 374 187 361 l 187 385 q 179 407 187 393 l 174 404 l 171 404 q 3 488 37 404 l 0 505 l 0 507 z "},"S":{"ha":793,"x_min":26,"x_max":729,"o":"m 433 1131 q 490 1069 490 1109 q 409 898 490 1031 q 466 876 466 895 l 466 871 q 398 811 466 848 q 390 795 390 801 q 469 773 460 784 q 482 749 482 759 l 482 741 q 431 700 468 700 q 422 694 422 700 l 422 692 q 444 643 444 675 q 488 613 444 619 q 512 572 512 587 q 507 567 512 567 l 504 567 q 466 570 489 567 q 447 537 447 570 q 439 502 447 514 q 450 480 444 502 l 447 467 q 479 355 479 382 q 469 347 469 351 l 469 345 q 485 336 485 342 l 485 334 l 479 326 l 479 320 l 482 320 q 547 355 490 320 q 580 377 562 356 q 664 483 664 429 l 672 488 q 713 448 713 463 q 612 323 713 419 q 555 266 593 287 q 509 214 555 255 l 509 209 q 566 65 544 144 q 583 35 574 65 l 580 19 q 602 5 602 10 l 602 -8 l 612 -8 q 634 52 627 -8 q 648 62 646 62 q 653 57 653 62 q 650 38 653 49 q 669 -84 650 -58 q 729 -174 690 -103 l 729 -198 q 710 -247 729 -233 l 694 -247 q 650 -174 656 -247 q 574 -76 623 -136 q 566 -35 569 -60 q 542 -14 542 -32 l 555 -11 l 555 -5 l 553 -5 l 545 -11 l 542 -11 q 528 16 538 -11 q 490 84 505 16 q 496 111 490 87 l 485 103 q 466 133 473 103 q 469 141 469 138 q 452 174 462 141 l 452 184 l 444 184 q 317 130 410 182 q 273 81 273 130 q 271 54 271 58 q 366 -19 366 19 q 222 -157 366 -76 q 149 -190 163 -190 q 94 -187 119 -187 l 94 -184 q 149 -141 98 -176 q 192 -57 192 -97 q 200 -46 195 -57 l 200 -41 q 154 -19 197 -33 q 105 71 105 18 q 119 176 116 120 q 181 271 163 215 q 184 279 184 271 l 181 279 q 105 231 116 231 q 75 217 105 224 l 67 217 q 48 263 48 229 q 73 312 48 297 q 75 323 75 317 l 75 326 l 73 326 q 26 336 26 328 l 26 350 q 97 399 26 374 q 113 423 113 410 q 54 464 73 423 q 48 486 48 474 q 192 559 48 524 q 260 610 229 571 l 260 618 q 241 629 256 629 q 154 613 169 613 q 116 673 116 613 l 116 684 q 146 711 116 711 q 214 751 210 751 l 214 757 l 197 757 q 151 741 166 741 q 78 795 78 768 q 92 803 78 801 l 116 800 l 224 846 l 224 852 q 205 1017 216 898 q 176 1074 176 1067 l 195 1077 l 208 1077 q 257 1023 248 1077 l 257 987 l 260 955 q 254 947 254 955 q 262 898 262 934 l 262 887 q 276 871 262 871 q 360 914 360 895 q 425 1096 393 966 l 425 1128 q 433 1131 428 1128 m 376 518 q 252 217 376 468 l 265 217 q 425 298 425 267 l 425 304 q 385 510 398 403 l 376 518 z "},"T":{"ha":916,"x_min":0,"x_max":887,"o":"m 366 1130 l 385 1130 q 426 1067 415 1130 q 420 991 420 1004 q 429 983 425 991 l 429 981 l 423 972 l 423 967 q 429 962 424 962 l 448 962 l 448 981 q 477 948 477 971 l 483 948 q 488 954 488 948 l 488 959 l 483 967 l 483 970 l 488 970 q 534 937 513 970 l 534 924 l 524 924 q 513 921 517 924 q 505 924 507 924 q 423 902 475 924 q 412 845 412 875 q 426 788 412 794 l 453 791 q 467 774 457 791 l 499 777 q 526 739 526 767 q 480 663 518 698 l 480 661 q 570 666 551 661 q 600 639 587 666 q 537 525 574 564 l 537 517 q 621 500 537 509 q 662 425 662 471 l 662 397 q 656 338 662 386 q 675 332 670 332 q 738 338 720 338 q 819 302 802 323 q 887 259 880 277 l 887 251 q 882 245 887 245 l 768 281 q 656 300 703 300 l 646 300 q 621 227 639 300 q 610 205 614 227 l 610 199 q 757 113 757 157 l 757 107 q 708 96 728 96 q 591 142 659 96 q 513 20 574 142 q 472 -7 486 -7 l 469 -7 q 456 31 464 -7 q 467 53 467 47 l 464 64 q 518 159 518 138 q 461 178 461 168 l 453 183 l 450 183 l 450 167 q 355 102 444 167 q 258 77 294 77 q 247 91 250 79 q 250 102 250 96 l 244 113 q 266 132 266 130 l 285 129 q 331 156 311 129 l 328 161 q 209 140 252 151 q 193 183 203 140 q 165 208 182 197 l 165 210 q 171 213 171 210 q 184 208 180 208 l 195 221 q 190 237 190 230 l 190 251 l 179 251 l 179 254 q 317 300 179 271 q 429 435 409 399 q 475 511 475 470 q 532 623 508 565 l 524 628 l 521 628 q 472 609 491 609 l 458 612 q 423 563 458 580 q 269 435 301 442 q 231 511 231 452 l 231 517 q 279 547 231 540 q 345 598 283 555 l 347 604 l 347 606 l 334 625 l 334 631 q 363 644 334 637 l 366 650 l 366 677 q 355 715 363 715 q 209 631 247 648 q 190 682 190 649 l 190 696 q 220 707 190 703 q 361 766 238 720 q 358 783 361 768 q 361 807 358 792 q 358 845 358 824 l 361 864 q 353 878 357 878 q 312 869 328 869 l 301 869 q 209 929 241 869 q 217 932 214 932 q 266 918 241 918 l 269 918 q 358 945 358 929 q 366 1089 366 1005 l 366 1100 q 358 1103 363 1100 l 345 1100 l 342 1105 q 366 1130 345 1130 m 486 438 q 529 373 529 388 l 529 370 q 524 343 529 368 q 532 332 528 332 l 556 332 q 583 381 583 332 l 583 419 q 515 479 583 460 l 510 479 q 486 438 501 479 m 393 319 l 399 316 q 415 327 412 327 l 431 321 l 448 324 q 461 294 454 324 l 464 294 l 469 313 q 461 332 461 327 q 467 389 467 366 l 467 392 l 464 411 q 431 373 444 411 q 393 319 393 336 m 469 208 l 469 202 l 480 199 q 534 202 520 202 q 564 273 554 216 q 570 297 570 293 l 564 300 l 559 300 q 507 283 513 300 q 469 208 478 218 m 290 210 q 336 202 312 202 l 358 202 q 431 283 431 202 q 345 270 424 277 q 288 210 288 224 l 290 210 m 152 254 l 165 254 q 171 248 171 253 q 168 240 168 243 q 184 227 180 237 q 117 202 184 217 q 52 180 80 180 l 46 180 q 0 208 18 207 l 0 213 q 133 248 24 231 q 152 254 133 253 m 217 227 l 203 229 l 203 227 q 214 216 203 224 q 239 232 239 229 l 236 237 l 217 227 m 445 42 q 450 37 450 41 l 450 -4 q 380 -61 450 -41 l 347 -61 q 282 -9 282 -61 l 282 7 q 288 12 283 12 l 293 12 q 326 -12 315 -12 l 350 -12 q 445 42 393 -12 z "},"U":{"ha":741,"x_min":0,"x_max":659,"o":"m 540 629 l 551 629 q 602 589 602 629 q 559 505 595 543 l 559 502 q 583 461 583 476 l 583 442 q 556 431 583 436 q 553 429 556 429 l 540 431 q 518 418 540 418 q 510 415 518 415 l 507 415 q 467 448 490 415 l 467 461 q 450 475 450 464 q 486 524 450 511 q 521 570 521 547 l 521 581 q 513 589 521 585 l 499 578 l 483 581 q 426 562 439 562 l 423 562 l 423 564 q 477 610 423 584 q 540 629 481 616 m 399 513 l 401 513 q 426 353 426 513 q 437 315 428 353 q 434 304 434 310 q 450 298 443 298 q 562 369 481 298 q 591 382 582 382 q 659 366 638 377 l 659 358 q 618 298 659 340 q 608 274 608 284 l 608 271 q 637 233 629 239 q 600 212 637 212 l 578 212 q 537 252 537 217 q 521 266 537 266 l 491 266 l 450 274 q 437 258 437 270 q 442 193 437 247 q 439 174 439 182 q 456 146 444 173 l 456 138 l 448 127 q 461 125 452 125 l 461 98 q 445 79 461 79 l 445 81 l 448 95 l 434 92 q 410 133 410 123 l 410 138 q 415 179 410 153 q 410 220 410 213 q 412 263 410 224 l 391 480 l 391 483 q 399 513 391 513 m 16 445 q 46 442 35 442 l 79 442 q 125 361 125 425 q 117 296 122 331 l 106 296 q 95 323 99 296 q 106 328 102 328 l 106 334 q 84 366 84 348 q 35 407 84 380 q 0 437 35 411 l 0 442 q 16 445 12 442 m 187 187 l 193 187 q 239 157 219 157 q 288 119 253 154 q 301 84 292 119 q 266 62 271 62 q 252 54 252 60 l 252 49 q 271 38 252 42 q 345 46 290 43 q 410 38 395 43 q 426 46 412 46 q 448 38 431 46 q 480 46 472 46 q 496 35 493 35 q 591 49 566 43 q 608 38 594 49 l 624 41 q 629 35 625 35 q 635 41 630 41 q 640 35 640 40 l 640 30 q 629 19 640 26 l 624 19 q 602 27 612 27 q 537 5 588 14 q 423 11 463 11 q 380 3 408 11 q 363 8 371 8 l 355 3 q 334 5 353 3 q 260 0 291 0 l 198 0 l 155 41 l 155 57 q 163 65 155 61 l 165 65 l 174 60 q 190 76 180 60 q 236 114 236 90 l 236 119 q 187 176 236 134 l 187 187 z "},"V":{"ha":987,"x_min":0,"x_max":928,"o":"m 345 890 q 415 844 415 884 q 369 692 415 816 q 410 662 410 682 q 515 781 431 663 q 564 811 546 811 l 564 792 q 570 770 570 773 q 564 749 564 757 q 572 746 570 746 q 581 768 581 758 q 572 784 572 770 l 572 798 q 602 822 572 822 q 684 762 646 822 q 689 746 689 753 l 689 722 q 654 616 689 709 l 648 610 q 656 600 652 600 l 681 600 q 768 543 723 600 q 773 521 768 534 q 770 491 770 503 q 779 475 772 475 q 852 491 838 491 l 871 491 q 898 458 898 491 l 898 412 l 901 399 l 909 399 l 917 404 l 922 404 q 928 399 928 404 l 928 385 q 857 363 857 371 q 798 331 834 331 l 770 323 l 757 331 l 754 326 l 754 312 l 749 312 q 684 288 739 312 q 667 274 673 288 q 597 258 597 264 q 583 236 597 236 l 578 233 q 570 236 572 236 l 570 250 l 567 263 l 564 263 q 548 244 553 256 l 551 228 q 526 214 543 214 q 423 163 513 199 q 391 146 423 156 q 380 155 380 151 l 374 152 q 369 157 369 152 l 369 163 l 382 165 l 380 179 l 380 184 q 437 209 380 194 l 439 222 l 439 228 q 401 296 401 258 l 401 298 q 513 491 401 373 q 518 507 518 496 q 491 551 498 507 q 488 556 488 551 l 499 600 l 494 602 q 404 477 433 559 q 347 404 347 422 q 355 372 347 397 q 309 179 355 308 q 350 160 309 160 q 366 155 350 155 l 366 146 q 336 136 366 139 l 336 127 l 350 127 l 358 122 l 366 122 q 412 130 382 122 q 456 127 440 127 l 475 127 q 515 138 481 127 q 562 119 554 125 l 564 119 q 586 136 564 132 l 602 136 q 635 127 609 136 q 640 133 635 133 l 646 133 q 703 125 677 133 q 741 127 726 127 l 751 127 q 789 119 779 127 l 787 106 l 787 98 l 798 98 l 819 114 l 825 114 q 833 90 826 90 l 849 92 q 868 65 849 85 l 868 60 l 865 54 q 863 57 863 54 l 830 54 q 789 62 804 54 q 770 43 786 43 l 765 43 q 730 49 754 43 q 667 38 730 43 q 665 35 667 35 l 643 41 q 589 27 642 41 q 572 35 572 30 l 572 54 l 567 54 q 556 33 562 54 q 540 27 547 27 l 529 27 q 350 3 477 27 q 320 0 350 0 l 296 0 q 271 3 286 0 q 252 0 268 0 q 241 19 246 19 l 228 8 q 206 27 216 13 l 206 35 q 214 54 206 44 l 214 57 q 203 103 214 60 l 203 109 q 217 127 217 123 l 225 127 q 228 122 225 122 l 225 117 l 225 103 l 231 103 q 263 176 254 130 l 266 182 q 247 190 254 190 l 250 209 l 250 231 q 222 187 237 223 l 220 187 l 193 195 l 187 195 q 179 171 182 195 l 174 168 l 168 168 q 141 190 155 168 l 141 195 l 157 214 q 127 266 127 231 q 100 298 105 281 q 122 326 100 326 l 130 326 l 130 334 l 127 334 q 119 331 122 331 l 119 334 q 157 393 119 361 q 190 437 180 437 q 206 431 195 437 q 214 467 214 445 l 198 467 q 187 448 196 467 q 138 412 184 448 q 127 410 134 410 l 117 410 q 24 494 76 410 q 0 518 21 494 l 0 524 l 14 526 q 33 518 33 522 q 71 526 50 526 q 100 494 87 526 l 103 494 q 122 513 122 494 q 109 526 122 515 q 212 572 116 546 q 266 616 212 588 q 290 800 290 671 q 293 822 293 800 q 271 838 293 828 l 269 844 l 269 857 q 307 882 269 882 q 345 890 321 890 m 572 705 l 572 694 l 575 694 l 575 705 l 572 705 m 572 692 l 572 684 q 575 673 572 677 q 564 640 564 654 l 564 635 q 570 629 565 629 l 572 629 l 572 632 l 570 643 q 581 673 578 656 q 572 692 578 692 m 651 532 l 654 521 q 651 477 651 481 l 659 464 l 659 461 q 640 423 659 423 l 640 420 q 646 396 646 403 q 600 320 618 334 q 608 315 600 315 q 724 396 694 366 q 675 450 675 414 q 678 515 678 513 q 654 532 671 532 l 651 532 m 562 507 q 564 496 562 501 q 532 464 564 486 q 494 399 506 416 q 456 315 456 342 q 472 301 458 307 q 543 339 491 301 l 556 334 q 583 410 562 357 q 591 461 583 421 q 578 505 583 496 l 567 513 q 562 507 562 512 m 233 420 l 233 401 q 244 377 233 380 l 247 377 l 255 382 l 258 382 q 277 361 261 382 l 279 361 l 293 363 l 293 377 q 277 399 293 392 l 274 399 q 269 391 274 391 l 266 391 q 239 420 251 401 l 233 420 z "},"W":{"ha":1018,"x_min":0,"x_max":939,"o":"m 534 1142 l 589 1142 q 624 1123 612 1142 l 624 1120 q 570 1104 624 1107 q 453 1066 498 1077 q 404 1039 449 1056 q 307 892 313 941 q 315 890 309 892 q 423 960 351 905 l 437 963 l 453 963 q 551 917 551 955 q 486 830 545 892 q 472 808 472 823 l 472 806 q 521 787 521 802 q 458 738 483 738 q 448 716 458 726 l 448 713 q 453 708 448 708 q 483 722 453 718 q 502 708 500 716 l 502 703 q 488 681 488 692 l 496 654 q 475 629 496 641 q 461 651 466 629 l 456 651 q 453 629 456 644 q 469 624 469 629 q 420 564 427 574 q 445 526 445 536 l 445 505 q 434 420 445 463 l 439 410 l 437 391 q 442 350 442 365 l 442 244 q 434 212 438 241 q 439 195 439 201 q 431 184 435 184 q 410 212 414 184 l 407 228 l 407 233 q 410 271 407 254 q 401 361 401 341 l 404 385 q 399 456 399 416 q 404 477 404 473 q 391 518 394 477 q 355 480 375 518 q 217 323 253 376 q 160 269 195 297 q 122 222 160 256 q 100 203 116 212 q 84 214 87 214 q 71 198 73 198 q 76 176 76 188 l 76 174 q 27 160 37 160 l 11 160 q 0 171 7 160 l 0 174 q 43 239 0 202 l 49 239 q 54 228 49 228 q 71 236 65 236 q 84 228 71 230 l 109 285 q 193 391 189 371 q 355 605 355 580 l 355 608 q 290 562 347 608 q 250 540 256 540 q 176 591 176 573 l 228 624 q 260 646 253 624 q 282 659 276 646 q 217 732 217 709 q 214 768 217 750 q 274 928 214 871 l 274 933 l 269 936 q 144 925 247 936 q 46 955 46 943 q 84 968 46 962 q 184 1004 105 981 q 393 1090 359 1074 q 475 1137 416 1137 q 491 1134 489 1134 q 534 1142 520 1142 m 282 952 q 288 947 283 947 q 385 1031 327 987 q 393 1044 385 1036 l 393 1047 l 388 1047 q 312 998 365 1047 q 282 952 282 961 m 391 879 l 328 879 q 290 849 290 879 q 288 830 288 846 l 288 803 q 317 678 297 678 q 369 727 334 684 q 345 811 345 765 q 331 827 331 818 q 363 836 340 836 l 372 836 q 418 822 380 836 q 445 863 439 822 q 453 887 446 863 l 448 890 q 391 879 402 879 m 803 532 l 808 532 q 844 510 833 532 l 865 515 q 939 467 939 499 l 939 453 q 933 448 939 448 q 800 488 914 456 q 781 524 786 488 l 781 526 q 803 532 791 532 m 694 339 q 760 317 751 328 l 757 312 l 768 309 l 768 307 q 765 288 765 295 q 787 258 785 288 q 781 252 787 252 l 779 252 l 770 258 l 765 258 q 732 233 765 233 l 727 233 l 711 236 l 705 233 q 665 250 696 233 q 686 282 678 268 q 673 290 673 284 l 678 298 l 673 301 q 648 296 653 298 q 635 304 635 299 l 635 309 q 694 339 635 313 m 203 247 q 250 193 250 225 q 260 184 255 184 l 290 209 l 301 209 l 301 198 l 298 193 q 320 136 311 193 q 269 111 320 111 q 266 109 269 109 q 195 155 195 119 l 195 174 q 203 247 195 240 m 437 179 l 448 163 l 448 152 q 439 125 439 127 q 450 98 450 106 q 442 71 442 77 q 453 22 453 28 q 434 0 448 9 l 429 0 q 342 71 342 41 l 342 79 l 353 79 l 369 81 q 407 68 398 68 q 420 109 420 87 q 410 160 416 122 q 437 179 427 179 z "},"X":{"ha":916,"x_min":18,"x_max":853,"o":"m 547 1114 l 549 1114 q 644 1087 601 1109 l 655 1074 l 655 1071 q 604 1003 655 1048 q 525 916 585 953 q 511 878 520 916 q 454 827 500 862 q 419 821 454 823 l 411 832 l 411 851 l 406 851 q 397 829 406 841 l 408 813 l 408 810 q 395 759 408 802 l 397 743 q 351 699 391 743 l 340 699 l 340 691 q 308 645 340 673 l 286 631 q 267 602 286 612 q 273 596 268 596 q 392 677 374 657 q 419 694 392 689 q 460 737 419 712 q 495 772 469 762 q 566 789 501 789 q 606 781 597 789 l 604 775 q 612 764 608 764 l 625 767 l 625 762 q 579 721 625 745 q 495 626 507 666 q 422 536 444 575 q 403 523 403 530 l 403 512 l 406 507 q 430 512 418 512 q 528 493 528 501 l 541 501 l 552 501 l 585 477 q 593 485 585 481 q 614 482 612 482 q 644 488 644 484 q 666 474 652 486 l 685 474 q 742 466 726 466 l 755 469 q 791 455 787 459 q 796 444 796 455 l 799 444 q 815 455 808 455 q 831 433 825 435 q 840 441 833 433 q 853 406 849 441 q 848 401 853 401 l 845 401 q 652 441 750 417 q 620 450 628 444 l 593 447 q 487 463 489 463 l 484 450 l 503 349 l 503 328 q 563 314 553 314 l 579 314 l 587 292 q 541 249 541 258 q 552 233 547 233 q 568 238 561 238 q 582 222 574 224 l 609 230 q 655 216 623 222 q 663 197 663 204 q 628 159 663 179 q 547 108 589 121 q 541 92 541 99 q 547 45 547 61 l 544 21 q 560 -47 552 8 q 568 -68 565 -47 q 555 -120 555 -114 q 533 -125 545 -125 l 525 -125 l 444 -63 q 433 -52 439 -63 l 433 -44 q 454 -28 436 -35 q 481 -33 467 -33 q 498 -20 481 -30 q 495 2 495 -5 q 498 24 498 11 q 481 64 490 24 l 476 67 q 444 54 451 58 q 411 83 411 60 l 414 111 q 408 116 408 111 q 425 165 425 126 l 425 168 q 416 178 418 168 q 430 208 430 203 l 422 214 l 397 214 q 340 257 340 233 l 340 260 q 397 276 340 269 q 406 273 403 273 l 406 271 l 400 262 l 406 260 l 408 260 q 433 300 408 272 l 433 306 q 406 374 415 317 q 384 398 406 391 l 378 406 l 378 412 q 408 450 378 429 l 419 466 q 373 477 419 471 q 346 444 352 477 q 278 352 290 374 q 243 314 254 314 q 221 303 221 313 q 237 298 221 298 l 237 287 q 199 233 237 274 q 189 222 189 232 q 194 205 194 211 l 191 205 q 180 208 186 208 l 178 208 q 180 186 180 189 q 151 140 162 140 q 156 127 156 132 q 129 67 144 92 l 126 67 l 123 73 q 129 94 123 75 l 129 97 q 110 121 110 115 q 134 149 126 149 l 137 149 l 137 151 l 129 162 q 145 192 134 168 l 159 192 l 156 205 l 156 211 q 159 214 156 214 q 156 222 156 219 l 175 252 l 180 249 l 183 249 q 221 325 192 249 q 237 379 235 357 q 248 385 248 379 l 248 398 q 264 412 264 408 l 262 425 q 286 466 268 425 q 308 498 308 481 q 292 512 308 512 l 286 512 q 227 479 270 512 q 121 436 155 436 q 113 431 121 433 q 64 471 92 431 l 64 477 q 110 536 78 536 q 159 572 116 536 l 161 572 q 178 566 170 566 l 180 566 q 202 615 194 615 q 240 669 207 615 q 340 786 268 694 q 370 838 343 786 q 397 878 382 843 l 403 878 q 416 867 415 867 l 419 867 q 430 897 426 867 q 452 943 452 915 q 500 962 460 962 q 511 970 511 968 l 511 973 q 506 976 506 973 q 484 965 490 965 q 479 976 482 976 q 544 1071 479 993 q 549 1093 549 1088 q 538 1109 545 1093 l 547 1114 m 156 979 l 161 979 q 197 957 174 979 q 262 941 234 941 l 264 941 q 302 954 276 941 l 302 951 q 305 941 305 947 l 305 938 q 245 905 278 905 l 245 903 q 254 897 245 897 q 270 903 262 903 l 273 903 q 289 889 289 903 q 254 813 277 888 q 224 794 235 794 q 191 832 218 794 q 170 843 180 843 q 167 840 170 840 q 153 870 153 853 l 153 873 q 161 905 153 882 q 156 941 156 934 l 159 954 l 151 976 l 156 979 m 308 528 l 308 526 q 313 520 309 520 l 316 520 q 349 539 349 520 q 351 550 349 545 l 346 550 q 308 528 311 536 m 392 124 l 397 102 q 387 70 397 90 l 392 59 q 376 35 389 43 q 330 70 355 35 l 330 94 q 384 127 330 127 q 392 124 392 127 m 666 78 q 726 70 680 73 q 720 56 726 56 q 728 16 728 43 q 723 10 723 15 l 723 7 q 728 2 724 2 l 734 2 q 753 24 738 2 l 753 35 q 747 56 753 37 q 766 64 760 64 q 815 40 771 54 q 837 18 837 22 q 834 -3 834 3 q 842 -20 842 -6 l 842 -22 l 829 -25 q 774 -9 781 -13 q 772 5 772 -4 l 769 5 q 758 -12 766 5 q 712 -14 744 -12 q 636 7 695 -14 l 636 13 q 674 35 636 16 l 674 51 l 661 73 q 666 78 666 73 m 56 75 q 104 70 104 73 l 107 64 q 104 56 104 59 l 104 40 q 91 29 91 33 l 91 26 l 102 16 l 102 13 q 47 -36 70 -36 l 45 -36 q 20 18 39 -33 q 18 26 18 18 q 39 45 18 33 q 56 75 47 75 m 340 -3 q 354 -33 350 -3 l 354 -36 l 332 -93 q 294 -106 319 -104 l 289 -98 q 300 -60 289 -92 q 292 -39 292 -47 q 340 -3 307 -3 z "},"Y":{"ha":998,"x_min":0,"x_max":917,"o":"m 369 1123 l 385 1123 q 477 1066 423 1123 l 477 1058 q 320 914 436 1048 q 298 879 298 888 q 315 873 307 873 l 350 873 q 391 846 391 873 q 317 732 391 821 q 315 722 315 728 q 323 713 315 720 l 328 716 l 342 716 q 372 697 372 711 l 372 675 q 290 515 372 593 q 258 350 258 469 l 266 350 q 339 445 339 418 q 320 513 339 476 l 320 518 l 334 521 l 350 521 q 404 477 389 521 q 464 439 446 467 q 480 336 475 426 q 515 152 491 292 q 448 38 494 38 q 396 106 396 70 l 396 119 q 450 133 450 123 q 415 407 439 404 l 412 407 q 382 233 412 401 q 385 225 385 228 q 353 165 368 165 l 347 165 q 301 233 304 201 l 293 233 q 233 62 233 160 l 233 16 q 225 0 233 2 q 203 41 203 0 q 165 109 165 91 l 165 114 q 179 209 174 136 q 182 214 182 209 l 187 214 l 198 206 l 201 206 l 201 217 q 184 225 184 220 q 190 244 185 244 l 187 250 l 187 258 q 195 269 193 269 l 193 288 l 193 290 q 225 477 193 312 q 233 499 233 488 l 233 518 q 228 524 233 524 q 165 439 177 472 q 119 361 130 406 q 52 296 91 296 q 0 358 25 315 l 0 372 q 71 448 0 391 q 269 684 239 628 q 282 694 281 689 l 282 697 q 277 703 282 703 q 174 613 260 703 q 136 545 153 613 q 114 534 123 534 q 43 575 59 534 q 27 608 35 608 q 11 637 18 608 l 11 643 q 79 705 11 651 l 182 860 q 190 868 186 860 q 187 876 187 873 l 184 876 q 130 854 134 854 q 111 852 122 854 q 27 930 85 852 q 16 947 16 936 q 201 1034 94 1003 l 320 1104 q 369 1123 362 1123 m 597 1066 q 692 892 664 1066 l 692 887 q 654 575 654 767 q 651 534 651 575 q 697 363 651 396 q 754 350 724 350 l 757 350 q 822 358 817 358 l 827 358 q 917 334 865 358 l 917 326 q 879 307 917 318 q 822 258 841 258 q 760 244 776 244 l 738 244 q 586 388 675 244 q 575 442 575 417 q 586 567 575 539 q 578 586 578 581 q 586 594 582 586 l 586 659 q 600 827 600 730 q 610 898 603 898 q 608 939 608 925 l 608 1015 q 591 1055 608 1035 l 591 1061 q 597 1066 592 1066 z "},"Z":{"ha":762,"x_min":50,"x_max":676,"o":"m 237 758 l 250 758 q 367 644 319 758 q 370 630 370 639 l 370 627 q 356 614 370 624 l 351 614 l 342 619 l 321 600 q 234 706 292 600 q 231 744 231 729 l 231 752 q 237 758 232 758 m 530 633 q 668 562 566 633 q 676 549 668 557 l 676 541 q 616 486 644 492 q 519 448 612 479 q 296 367 353 367 q 277 364 293 364 q 248 367 259 367 l 248 372 q 367 467 288 414 q 386 486 367 471 l 399 486 q 405 475 399 475 q 467 551 405 496 q 481 570 467 556 l 481 578 q 459 589 459 583 q 505 625 459 606 q 530 633 505 628 m 329 565 l 334 565 q 337 557 334 562 q 239 429 325 499 q 150 378 182 399 l 144 378 q 109 397 133 378 l 96 397 q 79 456 93 423 l 77 456 l 77 454 q 50 481 60 454 q 74 535 50 535 q 123 511 96 511 q 147 497 135 497 q 329 565 174 497 m 505 302 q 576 269 539 302 q 627 242 576 259 q 641 223 641 233 q 606 201 641 201 q 424 193 530 196 q 397 196 410 196 q 340 172 390 172 l 223 172 q 172 220 203 172 q 161 237 163 220 q 142 256 145 237 l 150 261 l 158 261 q 182 237 182 258 q 291 264 214 264 q 359 288 330 271 q 372 291 363 291 l 389 291 q 410 286 408 286 q 484 302 410 302 l 505 302 z "},"[":{"ha":514,"x_min":0,"x_max":0,"o":""},"\\":{"ha":386,"x_min":0,"x_max":0,"o":""},"]":{"ha":514,"x_min":0,"x_max":0,"o":""},"^":{"ha":688,"x_min":0,"x_max":0,"o":""},"_":{"ha":694,"x_min":0,"x_max":0,"o":""},"`":{"ha":694,"x_min":0,"x_max":0,"o":""},"a":{"ha":864,"x_min":-22,"x_max":792,"o":"m 350 1134 l 372 1134 q 407 1053 407 1108 l 407 1001 l 410 987 q 475 993 424 987 q 529 952 500 993 l 532 939 q 496 903 532 924 q 418 865 472 895 q 399 808 399 865 l 391 773 l 396 770 q 472 811 425 779 q 510 817 484 817 q 586 789 563 817 l 586 784 q 448 632 586 760 q 407 583 429 612 l 407 581 l 412 581 q 518 640 456 589 q 562 648 518 646 q 656 605 656 642 l 656 602 q 572 545 656 572 q 437 464 505 511 q 260 391 283 391 q 244 396 252 396 q 250 380 250 387 q 203 255 222 380 q 198 176 198 218 l 198 149 q 203 57 203 63 q 190 33 203 45 l 193 33 l 201 38 q 217 33 210 33 q 304 90 280 90 l 309 90 q 304 117 309 95 q 342 174 308 131 q 388 241 364 174 q 334 301 334 269 q 410 336 334 336 q 469 345 418 336 l 486 342 q 543 393 490 342 q 673 461 629 461 q 776 407 725 461 q 779 396 779 402 l 779 393 q 648 315 779 366 q 494 266 601 292 l 491 260 l 491 255 q 553 233 494 247 q 735 92 611 208 l 732 79 l 732 73 q 751 57 751 73 q 792 -30 792 -16 l 792 -41 q 716 -127 783 -127 q 654 -81 671 -127 q 681 -68 654 -76 q 694 -33 694 -47 q 575 117 665 61 q 418 217 474 190 q 388 203 409 214 q 393 184 390 184 q 374 136 393 156 l 361 138 q 339 117 345 132 l 339 114 l 347 114 l 347 106 q 355 87 347 97 l 355 81 q 326 54 355 54 l 326 38 q 307 11 326 25 q 263 -90 307 -24 q 244 -136 256 -102 q 222 -146 233 -146 l 209 -146 q 195 -122 205 -146 q 109 27 146 -92 q 95 87 95 76 l 117 195 l 117 198 l 114 225 q 130 277 117 253 q 136 315 133 311 q 125 334 131 334 q 103 312 125 318 q 81 285 100 312 q 57 277 64 277 q -19 342 -3 277 l -22 369 l -22 374 q 49 423 -12 391 q 160 499 106 467 q 190 534 160 509 l 190 543 q 138 575 190 547 q 95 662 102 616 q 157 724 102 713 l 160 724 q 198 684 180 724 l 206 678 l 212 678 q 298 713 225 688 q 323 776 323 728 l 323 779 q 317 811 323 792 l 315 811 q 214 770 302 811 l 149 751 l 144 751 q 49 803 138 751 q 8 841 8 818 q 38 846 19 846 l 43 846 q 73 844 55 846 q 138 865 104 857 q 149 863 143 863 l 152 863 q 157 868 157 863 q 174 863 166 863 l 168 873 q 176 876 171 873 q 193 865 179 876 l 195 865 l 209 887 q 228 890 217 887 q 244 873 228 886 l 247 879 q 241 892 241 888 l 247 895 q 260 890 256 890 q 326 936 326 909 l 326 939 q 282 1034 326 1008 q 271 1063 271 1048 q 350 1134 271 1126 z "},"b":{"ha":912,"x_min":0,"x_max":857,"o":"m 290 1044 q 317 944 311 1036 q 309 868 309 873 l 315 865 q 448 928 321 865 q 578 974 511 945 q 654 982 611 982 q 711 952 711 982 l 711 933 q 608 776 711 877 q 453 713 523 713 q 285 749 417 713 l 282 749 q 244 632 268 749 l 244 629 q 288 616 244 625 q 326 545 326 595 q 342 526 334 527 q 418 562 355 539 q 543 586 460 586 q 581 594 543 590 q 746 559 673 594 q 827 505 784 555 q 857 396 857 447 l 857 361 q 803 225 838 288 q 751 179 802 218 q 711 155 741 179 q 678 136 691 155 l 678 127 q 705 95 705 108 l 705 92 l 689 90 l 591 109 q 499 87 564 98 l 488 87 q 393 136 444 87 l 366 133 q 350 174 350 149 q 396 203 366 203 l 407 203 q 564 146 457 203 q 586 144 579 144 q 713 206 654 144 q 779 326 757 235 q 789 393 789 363 l 789 399 q 751 507 789 448 q 643 564 709 552 l 578 575 l 548 575 q 445 551 502 575 q 442 545 445 545 l 445 540 l 445 537 q 437 529 445 533 l 434 529 l 426 534 q 420 529 420 534 l 429 518 q 339 475 422 511 q 307 347 317 475 q 271 263 307 342 q 198 125 271 242 q 68 8 150 49 q 60 0 68 4 l 54 0 q 27 35 27 7 q 52 190 27 100 q 68 228 66 190 q 209 429 136 352 q 260 483 213 429 q 236 553 255 553 l 231 553 q 209 548 228 553 l 198 548 q 176 618 183 548 l 187 694 q 182 722 184 701 l 176 722 q 133 700 170 722 q 41 656 125 700 l 30 656 q 0 689 7 656 l 0 711 q 46 724 0 718 q 182 784 109 758 q 228 947 197 784 q 279 1044 251 1025 l 290 1044 m 453 876 q 458 857 458 865 q 423 827 455 844 q 369 808 419 821 q 307 779 332 785 l 304 773 l 304 770 q 342 754 309 770 q 388 749 357 749 q 548 787 463 749 q 651 887 600 818 q 673 933 673 913 q 637 960 673 957 q 551 930 629 960 q 494 903 528 930 q 453 876 475 897 m 65 144 q 87 92 76 92 q 233 279 163 124 q 260 401 260 375 l 258 412 l 247 412 q 179 363 220 389 q 92 203 92 268 q 79 155 85 189 q 65 144 66 149 z "},"c":{"ha":1025,"x_min":0,"x_max":952,"o":"m 505 684 l 510 684 q 583 648 529 684 l 586 643 l 586 640 q 502 575 568 618 q 461 540 461 544 q 458 529 458 535 q 570 401 458 507 q 600 304 600 363 q 589 138 600 215 l 589 65 q 564 3 589 18 l 548 3 q 401 33 510 3 q 312 65 357 33 q 282 79 294 79 l 279 79 q 239 38 261 79 q 176 0 189 0 l 171 0 q 100 60 136 11 q 95 76 95 68 l 95 79 q 125 198 95 105 q 152 353 152 318 l 152 396 l 146 396 q 106 366 134 396 l 98 366 q 19 407 91 366 q 0 415 5 415 l 0 420 q 43 439 0 425 q 203 513 142 513 l 214 513 q 255 475 255 502 l 255 461 q 228 279 250 367 q 198 155 198 192 l 198 114 l 201 114 q 282 163 282 140 q 369 353 282 227 q 396 391 396 373 q 345 426 396 404 q 277 480 302 473 l 277 486 q 342 494 277 494 q 434 475 374 494 q 431 515 431 502 l 431 529 q 450 589 431 562 q 415 600 450 596 q 385 659 385 621 l 391 662 q 434 640 412 642 q 488 681 447 646 l 505 684 m 111 670 q 149 667 132 670 q 206 670 180 670 q 277 616 253 670 q 298 600 298 604 q 241 581 287 581 l 225 581 q 136 640 202 581 q 111 656 115 656 l 111 670 m 762 564 q 814 515 814 555 l 814 502 q 776 355 803 434 q 795 342 776 346 q 895 363 868 363 l 909 363 q 952 339 935 363 l 952 315 q 798 239 952 269 l 746 239 q 646 255 656 241 q 684 269 646 260 q 711 288 708 279 l 700 323 q 749 505 746 475 q 711 545 749 526 l 711 553 q 722 562 711 560 q 762 564 735 562 m 445 374 q 423 274 437 366 l 426 274 q 510 366 429 274 l 510 369 q 505 374 510 374 l 502 374 q 483 366 492 366 l 469 366 q 445 374 465 366 m 369 111 l 361 111 q 331 149 340 111 q 307 119 323 149 q 445 65 349 65 q 534 98 515 65 q 548 201 548 154 l 548 222 q 529 336 537 321 l 524 336 q 450 241 521 336 q 377 117 396 168 l 369 111 m 304 176 l 304 174 q 309 168 304 168 q 363 250 346 219 l 366 266 l 366 274 l 363 274 l 304 176 z "},"d":{"ha":823,"x_min":6,"x_max":722,"o":"m 193 1095 l 204 1095 q 332 1059 294 1095 q 294 1021 332 1055 l 286 1010 q 361 981 286 1002 q 383 948 383 964 l 356 823 q 261 642 342 733 q 264 639 264 642 l 386 690 q 416 731 391 690 q 448 802 439 753 l 448 807 l 443 815 l 443 818 q 454 826 443 822 q 562 810 486 815 q 587 799 587 803 l 587 793 q 399 631 559 711 q 380 601 380 617 q 606 514 559 546 q 619 492 618 500 q 611 468 611 475 l 611 460 q 394 435 538 446 l 391 441 q 446 473 399 449 q 473 500 473 492 q 348 552 458 514 q 337 557 337 554 q 302 519 326 555 q 269 481 291 519 q 261 479 267 481 l 264 473 l 264 471 q 237 444 237 448 q 215 414 218 444 q 125 308 160 359 l 123 308 q 60 362 75 327 q 17 419 45 387 q 6 468 6 437 q 47 793 31 720 l 50 793 q 17 810 45 810 l 17 815 l 47 834 q 85 913 61 853 q 112 948 104 948 l 117 940 l 117 937 q 109 910 117 924 q 120 894 109 907 q 182 943 139 894 q 218 981 218 964 q 207 994 218 989 q 172 989 195 989 q 155 994 167 989 l 139 991 l 58 1010 l 58 1019 l 66 1019 q 153 1067 130 1034 q 193 1095 167 1095 m 212 872 l 212 869 l 215 864 l 248 867 l 261 867 q 272 888 268 867 l 272 921 q 212 872 212 901 m 134 793 q 125 774 125 783 q 131 734 125 771 l 134 734 q 150 774 150 769 l 150 783 q 134 793 150 786 m 125 647 l 125 620 q 112 492 112 529 l 112 487 q 117 441 112 463 q 218 506 130 441 q 277 557 247 546 l 283 566 q 267 576 280 576 q 237 571 241 571 q 177 609 187 571 q 134 647 149 647 l 125 647 m 342 376 q 424 365 367 368 q 462 332 462 347 q 429 300 462 330 q 340 197 397 257 q 329 172 329 177 q 342 123 342 130 l 342 110 q 340 99 342 104 q 348 83 343 83 l 361 83 l 448 110 q 497 113 481 113 q 665 75 644 99 q 722 28 692 63 l 722 -4 l 711 -4 q 497 88 610 78 l 470 88 q 351 47 398 88 q 337 -28 343 45 q 323 -66 329 -66 l 318 -66 q 253 7 253 -43 q 264 66 264 54 l 264 85 l 258 85 q 218 45 218 58 q 150 -23 218 38 q 112 -69 146 -23 l 96 -69 q 58 -37 68 -51 q 68 15 62 -21 q 120 69 71 15 q 123 75 123 69 l 128 75 q 131 69 128 69 q 115 20 115 30 q 120 15 120 20 q 174 75 138 21 q 218 104 201 102 q 239 153 218 131 q 242 161 242 159 q 231 175 237 174 l 193 175 l 193 180 q 199 186 194 186 q 207 183 201 186 q 280 221 280 199 q 302 281 290 233 l 296 283 q 229 254 296 271 q 158 224 192 224 q 85 189 104 189 q 52 227 60 189 q 109 283 52 264 q 123 270 109 281 q 182 292 132 270 q 234 308 220 296 q 280 340 252 308 q 334 373 297 345 q 342 376 337 373 z "},"e":{"ha":1219,"x_min":0,"x_max":1175,"o":"m 632 966 q 705 914 696 966 q 613 722 705 880 q 602 692 613 717 q 651 629 602 688 l 651 613 q 648 570 651 597 q 651 562 651 564 q 789 646 682 570 q 825 684 825 659 l 825 689 q 784 830 825 816 q 770 838 770 833 l 770 841 q 811 852 770 849 q 906 811 888 852 l 906 803 l 895 708 l 901 705 q 993 749 912 713 q 1053 776 1026 776 l 1072 776 q 1120 762 1082 766 q 1175 724 1175 729 l 1175 713 q 1028 646 1153 689 q 968 637 996 637 l 949 637 q 917 648 947 637 l 911 648 q 890 524 890 648 l 895 507 q 892 486 892 492 q 917 288 892 431 q 936 133 930 285 q 911 79 931 79 l 903 79 q 765 125 869 79 q 656 203 684 177 l 643 225 l 635 225 q 632 220 635 220 q 640 111 640 141 q 602 5 640 43 l 594 5 q 480 122 569 5 q 429 293 429 209 q 420 315 425 293 l 415 315 q 391 255 408 314 q 266 62 304 114 q 174 0 223 16 l 155 0 q 111 87 134 0 l 111 92 q 168 271 127 178 q 225 448 225 382 q 244 524 244 502 q 233 534 241 534 q 133 472 218 534 q 79 450 99 450 l 65 450 q 0 507 0 464 q 24 548 0 548 q 38 534 24 545 q 209 608 44 534 q 250 613 235 613 l 255 613 q 331 545 295 613 q 334 537 331 543 q 285 385 334 530 q 236 266 285 368 q 206 171 206 200 q 214 168 212 168 q 388 448 324 245 q 442 545 412 503 q 491 675 481 675 l 494 675 l 496 665 q 486 562 491 649 q 477 532 483 562 l 488 532 q 534 684 513 638 q 581 776 534 729 q 629 884 623 840 l 629 892 q 602 920 624 920 q 583 914 597 920 l 581 920 l 581 925 q 618 963 592 963 l 632 966 m 250 936 q 345 876 290 936 l 347 863 q 312 836 347 848 q 298 825 312 832 l 288 825 q 241 854 262 844 l 239 860 q 252 901 250 876 q 247 933 247 928 q 250 936 250 933 m 635 483 q 640 453 635 478 l 665 456 q 803 345 771 456 l 803 328 q 743 277 803 298 l 738 277 q 675 296 695 296 l 659 298 l 659 301 q 700 315 659 306 q 716 347 716 325 q 670 418 703 418 l 667 418 q 635 391 635 418 q 632 355 635 373 q 749 222 632 262 q 811 214 774 214 l 854 214 q 857 220 854 220 q 836 537 836 321 l 822 605 l 817 605 q 770 578 808 605 q 640 499 741 578 q 635 483 635 490 m 562 581 l 562 545 q 545 502 545 532 q 540 488 540 502 q 543 477 543 484 q 572 513 572 477 q 567 581 567 566 l 562 581 m 529 358 q 545 309 541 340 q 496 236 545 236 l 494 236 q 467 247 486 236 l 467 244 q 537 163 502 163 q 567 144 551 144 q 575 212 575 170 q 572 336 575 261 q 575 404 575 377 q 567 429 573 429 q 529 358 545 429 z "},"f":{"ha":886,"x_min":0,"x_max":814,"o":"m 505 882 l 578 863 q 632 817 595 854 l 632 814 q 545 773 632 802 q 260 624 283 661 q 307 605 271 616 l 307 600 q 266 543 307 589 l 266 534 q 331 524 324 524 q 404 551 337 524 q 670 591 540 591 l 686 591 q 814 521 777 591 l 814 480 q 779 274 814 448 q 703 57 779 201 q 572 0 646 0 l 518 0 q 418 57 500 0 q 401 65 408 65 l 339 54 q 277 71 339 71 q 203 133 203 112 l 209 133 q 252 122 212 133 q 258 127 258 122 l 258 136 q 241 331 244 244 q 236 377 236 368 l 236 382 q 239 393 236 389 q 217 426 236 426 q 106 353 127 395 q 52 282 102 333 l 52 274 q 103 255 62 255 q 133 168 103 242 q 168 81 168 94 q 160 68 165 68 l 144 68 q 62 109 62 85 q 0 255 0 194 q 90 418 0 286 q 187 578 121 476 q 203 629 203 614 q 111 692 138 670 q 95 705 106 692 q 109 716 98 716 q 130 711 126 711 q 382 806 181 711 q 491 857 471 828 l 491 879 q 505 882 500 879 m 543 472 l 543 380 q 551 331 543 360 q 548 279 551 309 q 551 122 551 190 q 562 100 555 100 l 570 100 q 665 195 610 100 q 697 315 678 230 q 711 339 703 318 l 708 353 q 722 412 708 376 q 716 431 722 420 q 722 464 722 450 q 708 458 713 458 l 705 464 l 705 469 l 713 480 l 713 486 q 570 518 713 504 q 543 472 543 518 m 326 393 l 331 391 l 388 415 l 399 415 q 464 382 422 415 l 464 377 q 434 336 464 366 l 434 334 q 475 320 434 328 l 480 320 q 488 331 488 320 q 483 350 483 349 l 486 377 l 483 382 q 486 385 483 385 l 483 404 l 483 418 q 486 442 483 427 q 469 494 475 494 q 407 445 466 494 q 377 439 380 439 l 374 445 l 404 464 q 423 477 411 464 l 423 480 l 420 494 q 328 458 328 474 q 326 393 328 456 m 326 328 l 326 312 q 331 307 326 307 l 334 307 q 350 339 340 307 l 345 339 q 326 328 330 339 m 323 182 q 331 136 323 168 l 334 136 q 393 165 353 136 q 426 171 412 171 l 461 171 q 486 168 477 168 q 488 193 488 183 l 488 269 q 480 271 486 269 q 426 244 433 244 q 347 222 377 222 q 323 184 323 222 l 323 182 z "},"g":{"ha":667,"x_min":29,"x_max":530,"o":"m 434 1158 q 484 1122 484 1141 l 484 1121 q 434 1064 464 1097 q 378 996 434 1061 q 371 979 371 986 q 401 970 380 975 q 417 963 401 966 q 443 968 429 968 q 476 946 476 966 q 434 900 434 930 q 439 856 439 859 l 439 854 q 435 843 439 849 l 439 827 l 437 817 q 478 804 437 804 q 513 783 513 794 q 469 751 513 770 q 443 727 443 736 q 445 718 443 721 q 443 688 443 699 l 443 648 q 406 560 443 613 l 397 558 l 395 558 q 313 593 386 558 l 307 593 q 279 545 296 593 q 244 481 244 489 q 218 387 244 458 l 217 361 q 222 359 220 359 q 264 411 248 380 q 334 465 296 465 q 355 466 341 466 q 487 323 456 466 q 520 199 520 219 l 517 189 q 530 130 523 180 l 530 102 q 507 6 530 23 l 509 -3 l 509 -5 q 402 -95 446 -95 q 360 -106 367 -106 l 353 -106 l 353 -100 q 463 -12 420 -80 q 498 87 482 14 q 505 100 505 94 q 500 111 503 100 q 505 124 505 121 q 498 165 502 136 q 505 181 500 175 q 486 251 489 182 q 410 398 446 361 q 334 435 366 435 l 332 435 q 275 361 305 435 q 208 192 244 319 q 204 170 208 186 q 210 135 210 159 l 210 111 q 197 85 210 94 l 193 85 q 128 127 163 85 l 127 137 l 127 142 q 167 248 167 235 q 250 556 210 437 q 279 608 273 591 q 248 635 279 612 l 246 635 l 228 630 q 200 661 215 630 l 189 665 q 158 661 174 661 q 121 688 121 669 l 121 690 q 154 726 121 707 l 156 729 q 154 766 156 734 q 233 860 154 825 q 267 902 254 867 l 331 1000 q 358 1040 347 1028 l 358 1046 q 353 1047 357 1046 q 316 1038 340 1040 q 243 1008 286 1018 q 66 941 155 968 q 29 989 47 941 l 29 1008 q 44 1033 29 1029 q 75 996 58 996 l 79 996 q 290 1077 116 996 q 371 1116 295 1077 q 399 1132 385 1116 q 427 1156 408 1132 q 434 1158 429 1158 m 338 920 q 364 937 341 921 q 353 950 361 946 q 338 920 338 939 m 353 861 l 355 861 l 378 889 l 378 891 l 373 891 q 353 861 372 891 m 347 858 q 296 829 345 852 q 288 814 292 823 l 292 814 q 349 858 338 844 l 347 858 m 274 760 l 274 753 l 355 779 q 390 793 364 785 l 393 810 q 386 838 391 838 q 285 786 373 827 q 274 760 274 772 m 178 768 l 180 757 l 180 744 l 182 744 q 213 790 209 744 l 213 791 l 210 793 q 180 775 180 786 q 178 768 180 771 m 252 670 q 301 643 252 655 l 303 643 q 358 696 316 659 q 391 733 359 699 q 395 747 395 739 q 388 759 395 759 q 340 733 360 754 q 329 703 334 726 q 269 683 315 689 q 252 670 256 678 m 342 633 l 342 630 q 373 623 355 625 q 391 637 391 623 l 391 680 q 388 683 391 683 q 342 633 374 676 z "},"h":{"ha":749,"x_min":-9,"x_max":696,"o":"m 492 1130 q 545 1107 530 1130 l 545 1098 q 442 1052 545 1065 q 319 981 360 1033 q 286 919 290 949 q 300 912 289 912 l 304 912 q 337 917 313 912 q 355 910 349 910 l 382 910 q 566 956 437 910 q 652 901 652 956 q 591 823 652 849 q 492 782 579 823 q 362 747 441 760 q 302 718 346 736 q 298 722 302 722 q 268 695 286 705 q 264 702 264 695 q 298 732 264 716 q 334 759 298 740 q 412 800 336 764 l 417 807 l 417 809 q 412 814 417 814 l 410 814 q 394 807 401 807 l 385 807 q 353 839 353 813 l 349 839 q 307 821 327 821 l 282 814 l 273 814 q 241 869 260 814 l 241 880 q 330 1013 241 951 l 337 1022 l 337 1025 l 330 1025 q 282 1015 292 1015 l 257 1015 q 191 1061 208 1015 q 186 1086 186 1080 q 197 1100 189 1096 l 199 1100 q 216 1088 214 1088 q 492 1130 315 1088 m 502 878 l 502 873 q 506 869 503 869 l 511 869 q 564 917 545 895 l 559 917 q 502 878 533 917 m 605 688 q 650 672 620 677 q 673 633 650 663 l 696 597 l 696 585 q 552 459 591 467 q 406 386 496 421 q 389 372 389 374 l 389 366 q 444 290 444 336 q 417 237 437 237 q 394 205 399 237 q 447 180 403 199 q 497 109 481 153 q 499 93 499 106 l 499 81 q 486 3 499 44 l 486 -1 q 559 -44 488 -12 q 621 -120 590 -67 q 630 -129 624 -120 l 630 -136 q 524 -218 629 -161 q 447 -255 463 -252 l 404 -255 l 404 -250 q 497 -175 422 -228 q 547 -117 547 -143 q 456 -56 498 -80 q 417 -85 446 -59 q 321 -136 357 -136 q 252 -147 310 -136 q 179 -109 179 -132 q 204 -99 191 -99 q 229 -102 224 -102 q 326 -67 293 -92 q 376 -10 376 -25 q 344 15 376 -7 q 341 22 341 20 q 344 24 344 22 q 389 18 360 20 q 408 79 408 22 l 408 102 q 374 166 408 156 q 351 157 357 157 q 321 201 321 183 l 321 228 q 346 315 321 256 l 346 324 q 337 340 346 336 l 332 340 q 298 326 300 326 q 289 342 289 330 q 319 399 300 385 q 488 530 386 440 q 577 622 546 576 l 577 629 q 554 642 577 636 q 472 615 472 629 q 424 564 437 598 q 264 489 373 534 q 119 384 211 447 q 51 326 99 363 q -2 397 13 326 l -2 416 q 1 425 -2 421 q -9 459 -9 446 q 60 530 -9 473 q 124 578 60 541 l 126 578 q 85 496 126 574 q 71 473 85 491 l 71 466 q 257 537 129 481 q 382 594 296 560 q 557 659 425 624 q 602 688 587 676 l 605 688 z "},"i":{"ha":836,"x_min":0,"x_max":803,"o":"m 331 1074 l 342 1074 q 353 1061 353 1069 q 331 898 339 1061 q 326 879 326 898 q 331 844 331 854 l 331 819 q 336 814 332 814 l 347 814 q 358 841 355 814 q 377 887 377 861 q 410 958 399 903 l 423 960 l 426 960 q 434 952 430 960 q 412 909 434 938 l 412 901 q 426 892 412 896 q 472 920 472 897 q 496 944 479 944 l 499 944 q 518 920 518 936 l 518 914 q 502 822 507 892 l 505 822 q 540 887 509 822 q 648 966 594 966 q 700 930 700 958 q 684 825 684 892 q 675 770 681 791 l 675 589 q 708 570 675 570 q 800 524 800 563 q 803 510 803 519 l 803 505 q 741 423 803 476 q 757 363 757 383 q 684 266 757 289 q 646 263 661 263 l 581 263 q 548 241 566 241 q 366 95 463 163 q 266 0 319 76 l 252 0 q 247 8 247 0 q 323 92 247 17 q 418 171 360 116 q 467 206 420 171 l 475 201 l 477 201 q 524 263 477 220 q 518 269 524 269 l 499 266 q 339 326 456 286 q 190 382 241 380 q 100 334 159 382 q 35 301 60 308 q 11 339 11 310 l 8 350 q 68 393 29 383 q 198 450 100 415 q 282 510 282 500 q 277 597 277 583 l 271 600 q 209 502 218 524 l 198 502 q 190 543 193 519 q 260 662 227 615 l 293 722 q 304 784 297 730 q 301 795 301 789 q 317 882 309 823 q 309 920 317 886 q 317 933 315 920 q 320 1039 320 1013 l 317 1039 q 307 1020 312 1039 l 304 1020 q 298 1025 298 1020 l 298 1039 q 331 1074 308 1074 m 491 705 l 491 692 q 496 686 492 686 q 526 779 526 766 q 553 789 538 789 l 559 789 q 591 765 591 789 q 567 705 567 708 q 618 694 574 697 q 637 689 618 689 q 665 871 648 714 q 673 925 667 871 q 651 941 673 941 q 515 800 562 941 q 491 705 491 748 m 469 890 q 361 716 469 878 q 331 586 331 675 l 331 575 q 339 545 331 545 l 353 543 l 353 540 q 323 445 334 514 l 320 445 q 288 486 300 445 l 279 486 q 182 412 182 415 l 182 407 l 198 407 q 412 320 382 342 q 551 296 505 296 q 675 420 577 296 l 675 426 l 662 437 l 635 407 l 629 407 q 564 467 603 407 q 548 472 555 472 l 540 472 q 448 439 477 472 l 423 439 q 399 472 399 453 q 453 515 399 493 q 458 543 456 522 q 450 586 454 586 l 372 551 l 366 551 l 366 556 q 426 594 377 570 q 456 662 456 606 q 467 722 456 675 l 467 724 q 464 727 467 727 q 469 760 467 732 q 467 798 467 783 q 472 822 472 815 l 472 863 q 477 887 472 869 l 472 890 l 469 890 m 342 757 q 415 863 399 818 l 415 865 q 410 871 415 871 l 401 871 q 342 757 342 779 m 174 811 l 176 811 q 182 806 182 810 l 182 803 q 155 773 157 781 l 155 760 l 168 741 l 168 738 q 130 697 158 697 q 0 754 57 697 l 0 757 q 92 779 0 762 q 174 811 162 811 m 494 643 l 496 643 q 540 684 540 657 l 540 689 l 537 722 q 502 665 517 722 q 494 643 496 665 m 567 621 q 586 562 571 562 q 629 600 629 562 q 637 648 633 635 q 632 659 635 659 q 567 621 567 647 m 486 586 l 486 562 l 483 545 q 486 537 486 540 l 491 537 l 548 556 q 534 618 548 618 l 532 618 q 486 586 486 605 m 678 537 l 673 529 l 673 472 q 705 458 673 466 q 738 513 717 458 q 678 537 738 534 m 600 524 q 610 505 604 505 l 616 505 q 621 510 621 505 q 613 532 621 530 q 600 524 600 528 m 510 483 l 510 477 q 559 491 559 484 l 559 494 l 556 507 q 510 483 545 507 m 627 309 q 629 307 629 309 q 678 358 678 326 l 675 358 q 627 309 667 358 z "},"j":{"ha":949,"x_min":0,"x_max":925,"o":"m 339 890 q 410 849 399 890 l 410 841 q 363 694 410 808 q 407 662 407 680 q 469 727 422 662 q 559 811 527 811 l 562 806 l 562 795 q 559 792 562 792 q 564 768 564 783 q 559 751 559 759 q 564 746 559 746 l 567 746 q 575 765 573 746 q 567 787 567 779 l 567 792 q 597 822 567 822 q 684 751 650 822 q 686 730 686 736 q 651 618 686 715 q 646 613 646 618 l 646 608 q 654 600 646 604 l 670 600 q 765 534 728 600 l 768 518 q 765 488 768 512 q 773 475 768 475 l 779 475 q 852 491 827 491 l 863 491 q 892 467 892 491 l 892 415 q 901 399 895 399 l 903 399 l 911 404 l 917 404 q 925 396 921 404 l 925 391 q 854 369 925 383 q 838 350 854 357 q 773 326 838 337 q 768 323 773 323 l 754 331 l 751 331 l 751 317 q 713 304 751 314 q 667 285 684 285 q 616 266 667 269 q 591 258 591 264 l 594 244 q 570 233 580 233 q 564 239 570 239 l 567 252 q 562 263 562 259 q 545 233 545 259 q 526 217 545 217 q 415 160 503 198 q 393 146 415 158 l 385 146 l 372 155 q 369 152 372 152 l 363 160 l 363 163 l 377 165 l 374 184 q 431 209 374 193 l 437 222 q 404 260 437 227 q 396 298 399 279 q 510 494 396 370 l 518 507 q 486 551 493 507 l 486 553 q 494 600 486 564 l 494 602 l 488 602 q 420 521 433 559 q 350 426 402 473 l 342 407 q 350 372 350 376 q 307 184 350 303 l 307 171 q 347 160 307 162 q 363 152 347 157 q 331 136 363 138 l 331 127 l 339 127 q 361 122 359 122 l 363 122 q 407 130 380 122 q 458 127 437 127 l 464 127 q 507 138 484 127 q 556 119 524 136 q 586 136 567 136 l 600 136 q 627 127 613 136 q 646 133 635 133 q 700 125 668 133 q 730 127 718 127 l 751 127 q 784 122 765 127 l 784 119 l 781 100 l 787 98 q 814 114 798 98 l 819 114 l 825 90 l 844 92 q 865 62 852 77 l 860 54 q 857 57 857 54 q 827 54 839 54 q 784 62 798 54 q 773 43 779 43 l 760 43 q 724 49 749 43 q 662 38 724 43 l 659 38 q 635 41 650 38 q 583 27 612 33 q 567 38 567 27 l 570 52 l 564 54 l 562 54 q 548 30 558 51 l 534 27 l 524 27 q 334 0 469 27 l 285 0 l 269 3 q 255 0 264 0 l 247 0 l 241 19 l 236 19 l 222 8 q 201 35 201 18 q 209 60 209 55 q 198 111 198 103 q 212 127 212 119 l 217 127 q 222 119 222 127 l 220 106 l 225 103 q 260 182 246 121 l 260 184 q 244 193 244 187 l 244 225 l 247 231 l 244 231 q 220 190 229 215 q 212 187 214 187 q 190 195 198 195 l 182 195 q 174 168 176 195 l 157 168 q 136 193 136 186 q 152 214 136 196 q 125 263 125 229 l 98 290 l 98 304 q 117 326 98 326 l 127 326 l 127 328 q 122 334 127 334 l 114 334 l 119 345 q 117 355 117 349 q 179 437 163 404 l 184 437 q 201 431 192 437 q 212 464 207 439 l 206 467 l 195 467 q 171 439 180 442 q 136 412 165 439 l 119 410 l 109 410 q 14 502 72 410 q 0 513 1 507 l 0 526 l 8 526 q 30 518 16 526 q 60 526 48 526 l 65 526 q 95 494 83 526 l 98 494 q 117 505 113 494 l 117 513 q 103 526 117 514 q 179 564 103 538 q 217 591 203 564 q 271 648 271 612 q 288 827 281 648 q 266 841 266 837 l 266 868 q 339 890 266 878 m 567 703 l 570 697 l 567 684 l 570 670 q 559 640 559 650 q 562 629 562 635 l 567 629 q 564 640 567 635 l 575 667 l 572 705 l 567 703 m 648 532 l 648 518 q 646 480 648 503 q 654 458 654 467 q 635 423 654 423 q 640 396 640 411 q 594 317 618 341 q 602 315 597 317 q 719 396 703 374 l 719 399 q 670 450 670 413 l 670 456 q 675 507 673 507 q 651 532 671 532 l 648 532 m 559 513 l 559 499 q 526 464 559 483 q 488 399 503 417 q 453 326 453 338 l 453 312 q 467 301 454 307 q 537 339 506 311 l 553 334 q 575 396 553 355 q 581 415 575 401 q 578 418 581 418 l 586 456 l 586 458 q 567 510 580 503 l 567 513 l 559 513 m 228 420 q 239 377 230 377 l 241 377 l 250 382 l 252 382 q 271 361 256 382 l 274 361 q 290 369 288 361 l 290 374 q 269 396 290 396 q 263 391 269 391 q 239 420 239 404 l 228 420 z "},"k":{"ha":955,"x_min":0,"x_max":917,"o":"m 382 1123 l 385 1123 q 475 1072 418 1123 q 480 1061 480 1072 q 298 879 373 993 q 315 873 307 873 l 347 873 q 391 849 391 873 l 391 844 q 315 724 391 821 q 323 713 319 713 q 345 716 338 716 q 372 697 372 711 l 374 684 q 290 513 374 595 q 260 391 260 465 l 260 366 l 258 353 l 266 347 q 342 448 342 421 q 323 515 342 454 l 323 518 l 336 521 l 342 521 q 407 475 391 521 q 477 382 477 463 q 515 157 477 355 l 515 146 q 448 38 494 38 q 396 111 396 69 q 401 119 399 119 q 450 136 450 119 q 415 407 441 407 q 382 206 382 241 q 355 165 368 174 l 347 165 q 301 233 304 203 l 296 233 q 247 149 283 229 q 233 24 233 118 l 236 24 q 225 0 232 0 q 203 43 203 0 q 168 100 168 87 l 168 114 q 187 214 179 214 l 198 206 q 203 212 203 206 q 184 228 184 223 l 190 247 q 187 258 187 252 q 195 269 191 258 q 193 290 195 271 q 236 507 220 459 l 233 524 l 231 524 q 168 442 184 480 q 117 347 131 409 q 57 296 83 296 q 0 363 35 296 l 0 369 q 71 445 0 392 q 266 678 243 632 l 282 692 l 282 703 l 279 703 q 233 670 265 703 q 144 572 144 593 q 114 534 144 539 q 43 575 60 534 q 30 605 37 605 q 11 640 21 605 q 76 700 20 659 q 171 846 138 787 l 190 865 l 190 871 q 184 876 190 876 l 179 876 q 109 852 144 852 q 16 944 86 852 l 16 947 q 212 1036 126 1017 q 382 1123 340 1123 m 600 1066 q 684 933 658 1066 l 694 884 q 656 656 671 855 q 651 559 656 578 q 692 369 651 401 q 751 350 713 350 l 762 350 q 830 358 822 358 q 917 334 896 348 l 917 326 q 879 307 917 317 q 849 274 867 285 q 749 241 849 256 q 581 401 669 241 q 575 442 575 436 q 586 570 575 518 q 581 586 581 578 q 586 591 586 586 l 586 654 q 602 860 602 741 l 602 876 l 610 892 q 608 960 610 903 q 610 1004 608 964 q 591 1058 610 1029 q 600 1066 591 1062 z "},"l":{"ha":545,"x_min":0,"x_max":488,"o":"m 431 732 q 464 708 442 732 l 464 700 q 296 562 420 656 l 293 551 q 347 502 319 540 q 358 467 358 472 q 355 393 355 412 q 241 282 338 354 q 92 179 172 252 q 87 165 87 179 l 87 160 q 174 195 105 173 q 247 222 203 208 q 269 298 258 233 l 277 304 l 282 304 q 328 285 311 285 l 334 285 q 420 301 346 285 l 423 301 q 488 269 461 301 l 488 260 l 486 260 q 464 263 484 260 q 374 247 435 253 q 296 217 347 233 q 252 106 277 217 q 258 100 253 100 q 312 144 262 100 q 377 187 319 144 l 399 187 q 407 179 403 187 l 407 174 q 369 155 407 169 q 266 49 275 81 q 228 19 243 19 l 225 19 q 206 46 214 19 q 231 138 206 100 q 241 176 231 141 l 241 179 q 233 187 241 183 q 114 122 141 156 q 57 84 61 84 q 41 79 48 79 l 24 79 q 0 109 0 79 l 0 125 q 81 209 0 152 q 165 263 109 237 l 233 328 l 233 331 l 231 336 l 212 334 l 206 334 q 174 358 174 352 q 241 467 174 435 l 255 467 q 285 461 281 461 q 296 480 296 466 l 296 486 q 263 521 286 521 l 258 521 q 220 499 250 521 l 214 499 q 203 526 207 499 q 285 591 203 563 q 377 673 340 633 q 407 711 407 696 l 396 711 q 345 692 389 711 q 195 618 333 692 l 106 559 q 87 534 98 534 q 62 586 66 534 l 62 608 q 141 708 134 674 l 152 716 l 155 716 q 163 708 159 716 q 127 635 148 660 l 127 632 l 146 632 q 184 654 158 632 q 271 681 233 654 q 307 697 278 681 q 393 727 326 697 q 431 732 427 732 m 239 401 l 239 393 l 250 393 q 260 404 254 393 l 260 410 l 252 410 q 239 401 243 401 m 298 258 l 298 252 l 301 252 q 309 255 307 255 l 309 263 l 304 263 q 298 258 298 262 m 450 217 l 453 217 q 488 176 480 217 l 488 168 q 439 106 488 151 q 391 49 439 103 l 391 41 q 418 22 418 31 q 328 0 418 3 l 317 0 q 301 33 301 12 q 328 57 310 57 q 345 52 333 57 q 420 133 381 73 q 431 155 420 140 l 431 168 l 412 184 q 450 217 420 217 z "},"m":{"ha":684,"x_min":0,"x_max":627,"o":"m 190 589 q 320 469 274 589 l 320 456 q 301 442 312 442 q 296 448 301 448 l 293 448 q 269 429 274 429 q 187 537 202 485 q 182 583 182 537 l 190 589 m 480 461 q 610 399 519 461 q 627 380 627 381 l 627 369 q 562 312 598 325 q 334 217 441 267 q 233 195 277 195 l 225 195 l 198 198 l 198 201 q 317 296 242 245 q 347 317 333 317 q 353 307 353 311 l 358 307 q 391 353 358 326 l 434 401 l 410 420 l 410 423 q 467 458 410 435 q 480 461 471 461 m 279 396 q 288 393 285 393 l 288 388 q 179 252 288 334 q 106 209 136 231 l 92 209 q 60 225 85 209 q 43 250 43 225 q 24 285 37 285 q 0 315 0 295 q 24 363 0 363 l 27 363 q 57 342 50 342 q 65 345 62 345 q 98 326 94 326 q 279 396 126 326 m 396 130 l 467 130 q 532 92 496 130 q 578 73 532 86 q 591 52 591 63 q 553 30 591 30 q 374 24 460 24 l 369 24 l 350 27 q 282 0 341 0 l 190 0 q 130 41 151 0 q 117 68 118 41 l 111 65 l 109 65 q 95 79 105 65 l 95 84 q 109 92 95 89 q 133 68 133 88 l 136 68 q 255 98 136 82 q 323 122 269 98 l 331 122 q 361 114 353 119 q 396 130 361 130 z "},"n":{"ha":889,"x_min":0,"x_max":838,"o":"m 222 1012 q 250 1004 224 1012 l 250 993 q 176 873 202 935 q 87 735 120 795 q 43 675 56 699 l 49 673 q 182 751 134 717 q 339 844 231 774 q 407 876 363 852 l 420 879 q 483 857 483 871 l 483 852 q 442 803 483 838 q 380 703 412 763 q 301 570 301 596 l 301 567 q 350 610 336 610 q 374 613 365 613 q 426 591 399 613 l 431 591 q 562 719 435 591 q 575 741 572 719 l 575 773 l 570 792 q 586 798 578 798 l 602 798 q 635 789 609 798 q 716 846 655 812 q 760 876 744 876 l 762 876 q 830 817 830 861 l 830 814 q 765 705 830 806 q 743 662 743 667 q 806 594 743 652 q 838 507 838 534 l 838 480 q 800 410 827 410 q 730 442 783 442 q 689 458 730 450 q 646 488 662 488 l 643 488 q 640 483 643 483 q 643 458 640 469 q 640 288 640 344 l 640 241 q 646 155 640 210 l 637 54 q 640 30 640 39 q 624 0 628 0 l 605 0 q 589 46 601 0 q 594 68 591 68 q 591 163 591 132 l 591 277 q 589 404 591 333 q 594 477 591 423 q 578 662 594 494 l 578 678 l 572 678 q 423 513 423 554 q 361 353 414 426 q 296 288 325 293 q 266 336 266 296 q 269 404 266 347 l 266 404 q 190 355 238 395 l 182 355 q 168 382 168 361 l 168 396 q 228 488 168 408 q 298 613 270 573 q 391 833 367 755 l 382 833 q 274 770 360 825 q 214 732 252 749 q 138 667 214 726 q 24 583 56 583 q 0 643 4 583 l 0 646 q 73 776 0 696 q 201 963 117 836 q 217 1009 207 964 l 222 1012 m 640 732 q 648 656 646 697 q 646 597 646 625 q 648 586 646 591 l 646 570 l 646 559 q 689 532 646 535 q 746 518 724 518 q 768 529 768 521 q 719 586 753 586 q 686 618 686 600 q 675 643 681 621 q 708 732 708 717 q 730 803 716 738 l 727 803 q 640 732 652 764 m 290 445 q 317 477 296 445 q 372 540 359 530 q 374 548 374 545 q 366 551 369 551 q 290 445 290 486 m 326 396 q 328 388 328 391 l 331 388 q 372 480 353 408 l 369 480 q 326 396 351 468 z "},"o":{"ha":1090,"x_min":0,"x_max":1036,"o":"m 581 993 l 621 993 q 724 941 724 979 q 703 895 724 935 q 646 762 670 813 q 751 700 725 743 q 768 667 768 677 l 762 659 l 762 656 q 773 635 773 645 l 765 629 l 751 632 q 684 586 751 629 l 678 567 l 678 562 l 684 564 q 727 515 707 564 l 703 437 q 822 401 811 427 q 846 345 846 372 q 825 307 846 330 l 822 307 q 789 317 791 317 q 656 282 656 309 q 654 266 654 268 q 656 206 656 225 q 613 146 644 146 l 608 146 q 540 220 574 146 l 548 225 q 570 222 563 222 q 578 255 578 245 q 553 285 578 266 q 534 326 536 308 l 534 350 q 572 439 534 393 l 572 445 l 570 445 q 505 401 553 445 q 442 323 468 374 q 437 315 442 315 q 431 326 431 321 q 442 401 437 385 l 439 401 q 415 361 420 401 q 366 201 415 340 q 334 168 334 177 l 334 160 q 551 117 370 160 q 732 87 633 87 q 892 117 765 87 q 936 122 897 119 q 1036 68 994 122 l 1036 60 q 922 3 1036 27 q 819 0 857 0 l 792 0 q 505 76 730 0 q 431 87 460 87 l 407 87 q 258 27 340 87 q 90 0 162 0 q 43 33 43 7 l 43 43 q 125 109 43 57 q 190 165 190 134 l 190 203 q 114 342 190 269 q 68 480 68 409 q 84 600 68 522 q 33 651 84 623 l 22 651 q 19 648 19 651 q 0 667 0 652 q 79 700 17 700 l 84 700 q 193 659 135 700 q 212 624 212 637 l 212 613 l 179 575 q 176 564 176 570 l 176 559 q 203 551 176 553 l 206 545 l 206 543 q 195 532 206 538 l 182 532 l 155 529 q 152 532 155 532 q 119 499 152 527 l 117 483 l 117 477 q 187 410 117 438 q 220 363 220 383 l 220 361 q 212 315 220 350 q 258 244 212 307 l 285 193 l 285 187 q 282 176 285 181 l 288 165 q 309 193 309 176 l 309 195 l 304 203 l 304 222 q 317 334 304 253 q 336 458 317 394 q 355 648 347 550 q 385 822 369 671 q 391 836 391 822 q 312 860 391 849 q 290 882 296 860 q 472 939 371 898 q 581 993 575 993 m 486 836 q 513 819 486 821 l 515 819 q 529 854 526 819 l 526 854 q 486 836 517 854 m 475 616 q 448 513 467 604 l 450 513 q 537 575 503 555 q 540 578 537 578 l 532 589 l 526 586 l 515 586 q 483 613 501 586 q 475 616 477 616 z "},"p":{"ha":685,"x_min":0,"x_max":635,"o":"m 109 955 q 206 901 156 947 q 228 868 222 868 q 361 901 309 901 q 488 944 444 925 q 551 947 538 947 q 635 922 626 941 l 635 906 q 540 860 625 889 q 401 768 488 821 q 241 616 242 627 q 203 532 203 553 l 209 529 q 269 556 269 539 q 296 610 269 596 l 323 610 q 366 589 340 610 l 372 589 q 396 594 389 594 q 420 583 416 583 q 363 545 420 560 q 342 483 342 534 q 298 418 342 452 l 260 407 l 255 415 q 285 496 285 450 l 285 502 q 277 510 285 506 q 193 488 211 488 l 190 488 q 168 526 168 498 l 168 534 q 288 708 170 578 q 445 827 298 708 q 529 887 450 827 q 540 901 540 887 l 534 903 l 494 903 q 247 833 338 882 q 184 800 199 800 l 176 800 q 155 849 155 814 l 160 876 q 122 939 160 905 q 95 947 121 939 q 30 917 61 947 q 24 914 24 917 q 14 930 14 917 q 71 955 22 955 l 109 955 m 534 529 q 597 507 590 529 q 458 407 597 498 q 326 271 434 407 q 309 239 309 245 q 320 231 320 233 q 336 244 332 235 l 355 241 q 382 244 379 244 q 415 228 415 237 l 415 214 q 380 138 415 197 q 374 125 375 138 q 410 119 396 119 q 442 244 433 119 l 442 247 q 429 282 442 271 l 420 282 q 358 258 405 282 l 355 258 l 353 263 l 353 266 q 442 312 396 312 l 453 312 q 507 263 490 312 l 507 255 q 469 60 491 112 q 358 0 378 4 l 350 0 l 350 3 q 385 54 376 35 q 307 87 385 71 q 279 157 279 121 q 282 193 282 180 l 274 198 l 271 198 q 195 79 258 188 q 90 3 123 3 q 76 22 76 7 l 76 27 q 274 274 76 49 q 309 320 282 287 l 309 323 l 307 323 q 252 293 300 323 q 30 198 83 205 l 11 198 q 0 212 5 199 q 54 296 32 291 l 57 296 q 71 269 57 276 q 309 361 119 273 q 437 448 422 421 q 507 526 490 526 l 534 529 m 334 184 q 336 152 336 165 q 353 193 347 152 q 350 201 350 198 l 345 201 q 334 184 339 201 z "},"q":{"ha":482,"x_min":0,"x_max":448,"o":"m 146 505 q 187 464 187 500 q 193 458 193 463 q 241 461 231 461 q 307 407 307 461 q 220 247 307 335 q 182 203 182 220 l 187 203 q 353 250 334 250 q 388 255 365 255 q 448 198 448 248 l 448 157 q 396 79 448 125 q 174 0 293 0 l 122 0 q 49 16 94 0 l 49 19 l 57 24 q 342 106 243 24 q 391 182 391 149 l 391 184 q 355 220 387 220 q 160 144 160 186 q 127 71 127 73 q 98 46 108 46 l 98 49 q 114 114 114 102 q 103 125 111 125 q 19 71 20 71 l 8 71 q 0 92 0 73 q 57 179 0 123 q 133 250 133 231 l 133 255 q 122 358 133 322 l 117 358 q 35 203 87 317 l 27 203 l 27 214 l 84 347 l 87 361 q 19 415 19 374 l 19 431 q 30 467 21 467 l 33 467 q 57 429 42 460 l 60 429 q 103 439 103 431 l 103 450 q 90 477 97 458 q 146 505 90 500 m 190 345 l 198 339 l 201 339 q 217 391 217 381 l 217 396 l 203 396 q 190 345 197 396 z "},"r":{"ha":697,"x_min":0,"x_max":646,"o":"m 562 789 l 570 789 q 581 781 581 784 q 589 784 586 784 q 646 751 644 766 l 646 738 q 548 646 637 705 q 382 543 422 587 l 385 543 q 448 562 429 562 l 453 562 q 532 537 509 562 l 534 524 l 553 532 q 591 439 575 514 q 618 201 618 229 l 618 165 q 624 111 618 163 q 613 79 624 93 l 613 68 l 616 52 q 532 3 585 3 q 475 5 522 3 q 450 0 457 0 l 445 0 q 377 76 393 33 q 328 111 347 111 l 323 111 q 304 71 323 85 q 250 163 250 89 l 250 165 q 269 231 250 198 l 255 231 l 255 277 q 282 502 274 372 q 317 594 293 563 q 323 608 323 594 l 323 613 l 176 529 q 87 488 131 488 q 0 553 54 488 q 3 556 0 556 q 11 559 8 559 q 43 548 37 559 q 73 570 69 570 q 201 635 117 585 q 260 662 243 646 l 274 659 q 342 703 279 673 q 534 773 442 773 q 562 789 553 782 m 339 372 l 361 372 q 399 393 368 372 l 426 401 q 507 323 507 390 q 532 260 507 316 l 532 258 q 450 176 532 222 q 391 146 450 160 q 366 171 388 146 q 418 258 418 221 l 418 260 l 404 263 q 388 260 402 263 q 342 317 375 260 l 336 320 q 331 315 331 319 l 334 271 q 326 239 326 245 l 328 239 q 317 209 325 220 q 323 184 323 191 q 317 138 323 170 q 328 125 320 125 q 442 127 349 125 q 518 79 461 127 q 556 165 547 79 q 564 195 562 165 q 559 290 559 257 l 562 307 q 518 472 536 431 q 467 510 498 510 l 464 510 q 420 475 431 510 q 339 380 388 475 l 339 372 z "},"s":{"ha":764,"x_min":0,"x_max":746,"o":"m 184 1053 l 193 1053 q 220 963 220 982 q 255 882 238 882 q 288 914 258 882 q 448 1006 364 964 q 467 985 467 1001 l 467 982 q 461 960 461 963 l 461 941 q 388 903 461 937 q 290 852 363 886 l 274 830 l 274 822 q 298 803 280 808 q 458 871 323 819 q 570 925 535 910 q 583 933 570 931 l 597 930 l 605 944 q 602 955 602 949 q 635 1039 635 1006 l 640 1039 q 684 1001 684 1026 q 613 890 684 964 q 600 895 604 895 q 540 827 571 827 q 334 754 392 770 l 334 751 q 342 703 334 741 q 339 694 339 697 l 334 694 q 298 716 320 694 q 252 732 292 724 q 212 681 252 704 q 136 589 146 633 l 92 515 l 92 507 l 95 502 q 71 469 91 502 l 73 456 l 68 445 q 71 388 71 410 l 71 380 q 76 374 71 374 l 84 374 q 285 515 130 374 q 475 659 372 602 q 551 694 482 659 l 553 694 q 559 689 559 694 l 483 643 q 426 543 446 543 q 418 534 418 543 l 420 518 l 420 515 l 412 505 l 412 502 l 426 499 q 583 591 475 499 l 589 589 l 594 589 q 662 654 594 603 l 681 689 q 665 711 681 692 l 665 713 l 681 713 q 746 678 746 713 l 746 654 q 610 524 731 604 l 602 524 q 597 532 602 532 q 532 480 591 509 l 529 475 l 529 464 q 570 437 569 444 q 540 396 570 404 q 613 372 540 391 q 651 285 651 325 l 651 277 q 591 106 651 153 q 578 79 591 97 l 578 76 l 583 68 l 583 60 q 540 46 555 46 q 469 62 527 54 q 410 146 410 87 q 453 252 410 197 l 453 260 l 450 277 l 445 277 q 382 133 400 224 q 334 0 382 39 l 326 0 q 271 54 298 0 q 269 68 269 59 q 323 231 269 82 q 418 345 333 260 q 453 391 436 359 l 448 393 l 418 393 q 380 410 380 395 q 382 477 382 454 l 382 480 l 380 480 q 328 426 380 458 q 271 377 320 426 q 236 350 252 377 q 155 288 195 312 q 90 255 138 255 q 49 315 65 255 q 19 355 19 338 l 19 361 q 24 388 19 366 l 22 415 q 30 429 28 415 q 24 442 24 437 q 35 464 29 464 q 43 461 41 461 q 57 472 56 467 l 57 483 l 43 486 l 43 499 q 71 556 60 517 q 98 610 87 575 q 222 749 137 661 q 244 765 222 755 q 222 795 230 792 l 217 795 q 90 694 186 795 q 73 689 81 689 l 65 689 q 8 730 8 709 q 0 768 0 730 l 0 779 q 19 806 0 806 q 43 789 28 789 q 184 860 74 789 q 195 865 184 865 l 195 930 l 184 1053 m 513 334 q 551 263 513 298 q 570 222 570 238 q 564 174 570 214 q 572 149 568 155 q 597 174 597 149 l 613 263 l 613 290 q 572 350 613 341 l 562 350 q 513 334 513 350 z "},"t":{"ha":866,"x_min":0,"x_max":814,"o":"m 513 738 l 521 738 q 534 703 530 738 q 521 640 534 694 l 526 637 l 532 637 q 548 646 543 646 l 551 640 l 551 637 q 521 616 521 620 q 469 537 503 593 q 448 570 448 547 q 502 703 448 622 q 513 738 504 738 m 567 648 q 673 586 673 627 l 673 583 q 608 496 673 556 q 605 488 605 491 q 665 420 665 439 l 665 412 q 624 331 665 398 q 621 317 621 326 l 635 317 q 692 288 684 317 l 692 285 q 659 263 692 266 q 575 279 607 279 q 529 247 535 279 q 521 203 521 217 l 521 182 q 632 43 521 81 q 719 33 670 35 q 779 43 756 35 q 814 30 814 36 q 803 19 810 30 q 814 16 808 16 l 814 11 q 776 0 814 3 q 754 5 774 0 l 735 0 l 697 0 l 689 5 l 681 0 l 665 0 q 553 38 634 0 q 494 176 494 96 q 518 288 494 223 q 521 307 521 291 q 496 342 521 336 l 496 345 q 505 353 496 349 q 513 350 507 353 q 594 380 576 350 q 618 437 618 419 l 618 442 q 586 467 618 467 q 540 448 551 448 l 534 456 l 534 467 q 586 564 534 509 q 610 586 595 586 q 600 627 605 598 q 562 646 562 637 l 567 648 m 49 646 l 57 646 q 119 591 119 627 l 119 578 q 90 510 119 564 q 87 502 90 502 q 90 494 90 496 l 106 494 q 155 450 155 486 l 127 347 l 171 331 q 203 304 203 308 l 203 301 q 195 293 203 297 q 141 296 188 293 q 130 282 130 293 q 155 138 142 138 q 206 198 187 155 q 231 228 206 207 q 250 271 231 262 q 258 263 254 271 l 258 239 q 160 16 226 119 l 144 16 q 98 122 98 44 q 87 206 87 154 l 84 206 l 87 212 l 87 255 q 71 309 87 283 q 65 334 71 319 q 73 369 73 357 q 35 415 52 415 q 19 410 26 410 q 3 475 13 410 q 0 480 0 475 l 8 486 l 19 480 l 22 486 l 22 491 q 19 502 22 497 q 38 564 31 515 q 57 616 40 565 q 49 637 49 629 l 49 646 m 68 445 l 68 431 q 87 391 68 408 l 90 391 l 95 393 q 92 401 95 396 q 95 437 95 425 q 84 467 92 467 l 81 467 q 68 445 68 460 z "},"u":{"ha":1016,"x_min":14,"x_max":890,"o":"m 587 1122 l 595 1122 q 695 1076 695 1105 q 646 1013 692 1055 q 562 924 617 953 q 522 859 543 859 q 465 829 497 829 q 451 861 451 829 q 437 834 446 861 q 448 823 441 834 l 448 818 q 435 766 448 809 l 435 750 q 391 709 431 750 l 380 707 l 380 699 q 334 644 380 677 q 318 617 329 644 q 307 609 307 616 l 315 604 q 429 682 429 678 q 459 701 433 701 q 497 745 459 720 q 538 780 519 780 q 597 796 538 796 l 616 796 q 646 788 646 796 l 644 783 q 646 774 646 777 l 665 774 l 665 764 q 589 707 661 755 q 530 628 547 665 q 465 547 478 577 q 443 530 455 547 l 443 522 l 446 517 q 475 519 464 519 q 570 503 547 511 q 587 509 579 509 q 622 487 597 509 l 625 487 q 638 495 633 495 l 649 490 q 692 495 684 495 l 703 481 q 720 484 718 484 q 782 473 766 473 l 798 476 q 833 460 833 467 q 836 452 836 454 l 850 463 l 852 463 q 871 444 869 444 l 880 449 l 882 449 q 890 411 890 449 q 880 408 886 408 q 768 430 838 419 q 663 454 721 449 l 657 460 q 635 454 647 454 q 527 471 534 471 l 524 465 l 524 463 q 543 365 524 444 l 543 340 q 595 324 543 331 l 595 321 l 608 324 l 614 324 q 627 305 617 324 l 627 302 q 584 267 623 293 q 581 259 584 259 q 592 240 588 240 l 600 245 l 606 245 q 619 232 618 232 l 627 232 q 649 237 630 232 l 652 237 q 692 227 661 229 q 703 202 703 214 q 673 172 703 188 q 589 118 624 125 q 581 102 581 108 q 587 58 587 71 l 587 56 q 584 31 587 46 l 608 -64 q 595 -113 600 -80 q 562 -118 576 -118 q 492 -64 549 -100 q 473 -37 473 -49 q 500 -20 482 -20 q 516 -26 509 -26 l 538 -12 q 535 9 535 3 q 538 31 538 18 q 530 34 532 34 q 516 75 527 75 l 513 75 q 475 61 483 61 q 454 80 454 75 q 451 94 451 85 l 454 118 q 448 123 448 118 q 462 151 462 133 l 462 170 l 465 175 q 456 186 460 175 q 470 216 470 211 q 443 224 458 224 l 437 221 q 380 259 389 239 l 380 267 q 443 283 380 279 l 446 278 l 440 270 l 448 270 q 473 308 448 284 l 473 316 q 448 381 448 335 q 427 403 443 403 l 418 414 l 418 427 q 454 465 418 431 l 459 473 l 459 476 q 454 481 459 481 q 451 479 451 481 q 408 484 421 484 q 380 444 396 484 q 345 397 374 443 q 296 330 331 385 l 286 321 l 272 324 l 261 311 q 277 302 277 307 l 277 294 q 242 243 277 283 q 229 229 233 243 q 234 213 234 220 l 229 216 l 218 216 q 220 199 220 201 q 199 151 220 189 q 191 148 193 148 l 196 140 l 196 134 l 172 77 l 163 77 l 163 83 q 169 104 163 85 l 150 126 q 177 159 165 159 l 169 170 q 193 199 182 199 l 199 199 l 196 213 l 196 218 q 199 221 196 221 l 196 227 l 196 232 q 212 259 212 250 l 218 259 q 220 256 220 259 q 253 311 230 256 q 277 387 275 365 q 288 392 288 387 l 286 406 q 304 419 304 415 l 302 433 q 332 481 307 434 q 348 509 344 481 q 329 522 348 518 q 248 476 315 522 q 158 444 189 444 l 153 438 q 106 476 121 450 q 104 487 104 481 l 120 530 q 191 576 169 551 l 196 579 l 199 579 q 220 574 218 574 q 250 628 234 628 q 351 755 250 643 q 391 807 351 761 q 429 869 391 818 q 440 886 429 882 l 443 886 q 456 875 455 875 l 459 875 q 470 907 467 875 q 492 954 492 919 q 546 972 503 968 q 551 975 546 975 l 551 978 q 546 983 551 983 l 543 983 q 524 975 533 975 l 522 975 q 519 986 522 986 q 581 1076 519 1000 q 589 1097 589 1091 l 578 1116 l 587 1122 m 196 989 q 248 959 208 989 q 304 948 289 948 q 337 962 318 948 l 342 962 l 345 948 l 345 945 q 286 916 321 916 l 286 907 l 294 907 q 315 913 296 907 q 329 902 328 907 q 291 818 308 869 q 267 802 278 806 q 229 842 259 802 q 215 853 227 842 q 204 850 210 850 q 193 875 193 865 l 193 880 q 201 913 193 890 q 196 948 196 941 l 199 962 l 191 983 q 196 989 196 983 m 348 541 l 348 530 l 359 528 q 391 560 391 528 l 348 541 m 429 137 q 437 110 437 115 q 427 77 437 98 l 432 66 q 418 45 425 45 q 386 61 393 45 q 370 85 370 71 l 370 102 q 408 132 370 132 q 429 137 408 135 m 101 85 q 123 80 119 80 l 136 83 q 147 75 147 79 l 144 61 q 147 50 147 56 q 131 37 131 41 l 131 34 l 142 23 q 87 -28 111 -28 q 58 34 78 -26 q 82 56 58 41 q 101 85 85 85 m 703 85 l 766 77 q 760 61 766 70 q 768 23 768 61 q 763 18 763 22 l 763 15 q 771 9 763 9 q 793 31 777 9 l 793 42 q 787 64 793 45 q 804 72 798 72 q 866 42 825 59 q 877 23 877 30 l 874 9 q 882 -12 882 -4 l 882 -15 q 871 -18 871 -15 q 817 -4 845 -7 q 812 12 812 2 l 809 12 q 795 -4 799 -4 l 739 -4 q 676 20 676 12 q 711 42 676 24 l 714 47 l 714 58 q 701 77 703 77 q 703 85 703 83 m 22 64 q 41 28 31 64 l 39 23 l 55 -23 q 47 -34 51 -34 q 14 20 35 -34 l 17 34 l 17 58 q 22 64 18 64 m 375 7 q 394 -26 394 1 q 351 -96 375 -96 l 332 -96 l 329 -85 q 340 -50 340 -55 q 332 -28 332 -37 q 375 7 342 -5 z "},"v":{"ha":953,"x_min":0,"x_max":887,"o":"m 358 1124 l 393 1124 q 423 1067 423 1105 q 426 1064 426 1067 l 420 988 q 429 980 425 988 l 429 975 l 423 966 l 423 961 q 429 956 424 956 l 442 956 q 448 961 448 956 l 448 975 l 456 975 q 477 945 477 956 l 477 942 l 480 942 q 488 950 484 942 l 488 953 l 483 961 l 483 964 l 494 964 q 534 931 514 964 l 534 923 q 529 918 534 918 l 496 918 q 431 901 481 918 q 412 842 416 901 q 426 782 412 791 l 431 785 l 456 785 q 464 768 460 785 l 491 771 l 502 771 q 526 739 526 758 q 496 673 526 713 q 480 654 480 664 l 483 654 q 575 660 513 654 q 600 630 600 647 q 537 516 565 546 l 537 508 q 621 494 560 503 q 662 418 662 467 l 662 397 q 659 332 659 359 q 667 329 665 329 q 741 332 734 332 q 830 291 787 324 q 887 248 887 270 l 887 242 l 882 242 q 789 269 868 242 q 667 294 707 294 l 659 294 q 656 296 656 294 q 635 267 635 296 q 610 199 624 229 l 610 193 q 757 106 748 159 q 716 93 751 93 l 697 93 q 594 136 656 93 l 589 136 q 518 25 569 126 q 472 -13 491 -13 q 456 25 463 -13 l 467 47 l 464 63 q 518 150 517 127 q 472 161 518 158 q 453 177 472 164 l 450 177 q 434 155 450 155 q 266 71 349 78 l 263 71 q 247 82 253 74 l 250 96 l 250 98 l 244 106 q 269 125 263 125 l 285 123 q 331 155 331 135 l 328 155 q 209 134 239 144 q 190 182 202 145 q 165 199 173 199 l 165 201 q 174 207 165 207 l 184 201 q 195 220 195 214 q 190 248 190 220 l 184 245 l 179 245 l 179 248 q 239 275 179 262 q 320 296 248 279 q 431 432 395 380 q 475 505 475 464 q 532 616 508 560 q 521 622 525 622 q 475 603 486 603 l 472 603 l 458 606 q 434 565 458 577 l 320 462 q 274 432 298 446 l 266 432 q 231 508 231 446 l 231 511 q 279 541 231 535 q 345 592 289 555 q 347 600 347 597 q 334 627 334 618 q 363 638 334 633 l 366 644 l 366 673 q 355 709 364 709 q 214 627 260 652 l 209 627 q 190 676 190 642 l 190 695 q 269 725 203 695 q 361 763 354 755 l 358 777 q 361 801 358 786 q 358 839 358 818 l 361 858 q 350 871 358 871 q 309 863 326 863 l 304 863 q 209 920 245 863 q 214 926 210 926 q 271 912 250 912 q 355 934 349 926 q 366 1078 366 977 l 366 1091 q 361 1097 366 1097 l 342 1097 l 342 1107 q 358 1124 347 1118 m 486 435 q 524 386 489 425 q 529 367 529 378 q 524 337 529 362 q 562 326 524 326 q 583 389 583 326 l 583 413 q 513 475 583 453 q 486 435 503 475 m 393 313 l 401 313 q 410 321 406 313 q 456 307 456 321 q 461 291 461 293 l 464 291 l 469 307 q 461 326 461 321 q 467 386 467 366 l 464 405 q 426 361 445 405 q 393 313 393 330 m 467 199 q 496 193 477 193 l 515 199 q 534 196 526 196 q 567 277 553 210 l 570 294 l 545 294 q 505 272 512 294 q 467 199 475 207 m 288 210 l 288 204 q 347 196 321 196 l 350 196 q 431 277 431 196 q 350 267 431 271 q 288 210 322 252 m 163 250 q 171 248 168 248 l 168 234 q 184 220 180 231 q 109 193 184 213 q 52 174 78 174 q 14 199 48 174 q 0 207 0 201 q 81 234 0 217 q 163 250 91 234 m 220 223 l 203 223 l 203 220 q 217 212 203 214 q 239 226 239 223 q 233 231 239 231 l 220 223 m 445 36 q 450 31 450 35 l 450 -13 q 407 -56 450 -37 q 369 -67 407 -64 l 358 -67 q 282 -13 282 -67 l 282 1 q 288 6 283 6 l 296 6 q 328 -18 315 -18 l 347 -18 q 445 36 392 -18 z "},"w":{"ha":819,"x_min":35,"x_max":737,"o":"m 431 1143 l 441 1143 q 498 1083 481 1143 q 417 912 498 1042 q 474 893 474 905 l 474 885 q 414 831 474 860 q 398 806 398 819 q 482 779 482 798 q 490 768 485 779 l 490 755 q 447 717 481 717 q 431 706 431 715 q 450 684 431 703 q 485 630 450 630 q 520 587 520 611 l 515 578 l 488 581 l 474 581 q 455 570 460 581 l 455 538 q 447 519 455 525 q 458 494 458 498 l 455 481 q 488 370 488 395 q 477 364 481 364 l 477 361 l 493 351 l 493 348 q 488 334 488 339 l 490 334 q 561 372 509 339 q 583 386 577 372 q 672 492 672 445 q 677 500 672 500 q 721 470 690 500 l 721 462 q 615 329 721 433 q 564 280 600 299 q 517 229 564 267 l 517 223 q 572 87 545 174 q 591 50 585 68 l 588 33 q 610 20 610 23 l 610 6 l 615 6 q 640 58 640 6 q 656 77 652 77 q 661 71 661 76 q 659 52 661 56 q 677 -70 659 -50 q 737 -168 725 -129 l 737 -192 q 715 -235 737 -219 l 705 -235 q 661 -184 674 -235 q 599 -86 661 -149 q 574 -21 574 -54 q 550 -2 550 -18 q 564 3 559 3 l 564 9 l 555 3 l 550 3 q 539 28 543 3 q 498 98 512 28 q 504 123 498 102 l 501 123 l 493 117 l 490 117 q 474 147 482 117 q 477 150 474 150 q 458 199 460 178 l 455 199 q 325 144 425 198 q 281 96 281 144 q 279 68 279 72 q 355 31 322 50 q 374 -5 368 17 q 227 -146 362 -73 q 157 -176 170 -176 q 102 -173 120 -173 l 102 -170 q 157 -127 102 -166 q 200 -43 200 -83 q 208 -29 206 -43 q 165 -7 208 -18 q 113 85 113 31 q 124 153 124 139 l 124 174 q 159 223 124 193 q 192 294 176 250 l 189 294 q 81 231 109 231 q 56 275 56 231 q 83 329 56 310 l 83 334 q 37 345 83 339 l 35 351 l 35 370 q 113 418 39 385 l 121 429 l 121 432 q 86 446 121 435 q 56 503 56 472 q 222 581 56 534 q 268 630 268 612 q 252 644 262 644 q 170 627 178 627 l 157 627 q 124 690 124 627 l 124 701 q 157 725 124 725 q 222 766 195 752 l 222 768 l 216 771 l 208 771 q 165 755 172 755 l 162 755 q 89 798 132 755 q 86 806 86 804 q 97 817 88 814 q 121 814 112 814 q 233 861 225 853 l 233 866 q 214 1029 225 911 q 184 1088 184 1081 q 219 1091 207 1091 q 265 1037 254 1091 l 265 1002 q 268 972 265 990 q 262 958 262 963 q 273 888 270 946 l 279 885 l 281 885 q 366 923 366 905 q 433 1107 395 963 q 431 1143 433 1109 m 385 532 q 260 231 385 481 l 265 229 q 431 302 368 253 q 433 313 433 307 l 433 318 q 393 524 406 415 l 385 532 z "},"x":{"ha":1084,"x_min":0,"x_max":1047,"o":"m 735 1112 l 765 1112 q 803 1093 789 1112 q 738 977 787 1051 q 719 947 719 960 q 776 968 726 947 q 798 971 783 968 q 860 922 835 971 q 879 890 870 922 l 879 882 q 722 635 879 833 q 719 624 719 630 l 724 621 l 727 621 q 814 646 749 637 q 922 613 922 637 q 925 602 922 602 q 852 562 925 572 q 825 548 825 551 q 868 513 845 513 q 925 480 895 513 l 925 469 l 917 458 l 917 456 l 955 426 l 958 412 q 922 377 958 404 l 922 374 q 939 339 922 369 q 949 274 942 305 q 825 190 949 221 q 713 168 759 168 l 711 168 q 686 225 694 168 l 686 236 q 738 288 686 252 q 765 323 765 319 l 765 326 l 738 323 l 730 323 q 713 366 720 323 q 749 415 725 415 q 765 429 765 426 l 765 437 l 757 437 l 751 434 q 719 461 751 439 l 719 467 q 768 477 719 473 q 781 502 781 488 l 781 507 q 773 524 781 522 l 754 521 q 751 529 751 526 l 754 540 q 746 551 750 551 l 735 551 q 684 537 728 551 q 665 559 678 537 q 637 491 665 543 q 605 372 605 381 q 629 233 605 335 q 651 81 629 176 q 654 57 654 66 q 643 0 651 24 l 624 0 q 564 84 580 36 q 540 217 540 187 q 594 505 540 402 q 597 515 594 511 q 578 537 597 521 l 578 540 q 589 567 589 560 q 575 600 589 581 q 586 610 578 610 q 632 608 600 610 q 656 632 637 608 q 675 651 675 635 q 713 719 675 680 q 806 882 806 849 l 806 895 q 800 901 806 901 l 795 901 q 700 849 782 885 q 613 779 654 831 q 586 760 613 766 l 583 760 q 572 779 572 764 l 572 784 q 605 909 592 909 q 686 1006 644 934 q 730 1109 724 1084 l 735 1112 m 239 1055 l 244 1055 q 339 1001 339 1042 q 269 800 317 981 q 263 787 264 800 l 263 781 q 353 754 265 774 q 382 716 382 739 q 372 694 382 714 l 374 689 q 355 632 363 632 l 347 632 q 258 681 321 632 q 228 515 245 681 q 222 415 222 450 q 225 355 225 361 l 217 328 q 225 315 223 328 q 214 298 225 312 q 220 282 214 291 l 217 271 q 222 258 222 262 q 214 250 218 258 l 233 141 l 233 68 l 247 16 q 239 0 247 2 l 203 0 q 141 73 172 0 l 141 90 q 168 195 168 151 q 165 203 165 201 q 179 209 174 209 q 171 220 174 220 l 174 233 l 174 239 q 165 263 165 249 l 165 266 q 198 277 165 273 q 176 320 180 294 q 184 342 184 334 l 184 345 q 168 372 171 361 l 182 393 q 168 423 174 406 l 171 450 l 171 513 q 168 581 171 536 l 165 581 q 103 505 132 553 q 57 439 93 469 q 3 496 14 439 q 0 545 0 529 q 46 618 0 575 l 81 697 l 84 697 q 122 659 101 697 q 136 632 130 635 q 176 686 176 648 q 201 803 176 755 l 195 822 q 220 925 195 866 q 247 1031 228 942 q 239 1055 239 1048 m 1017 591 l 1023 591 q 1047 510 1023 550 l 1047 488 q 1034 453 1036 478 l 1025 453 q 974 502 999 453 q 966 524 974 510 q 974 532 966 532 l 974 537 q 952 548 969 537 l 952 553 q 960 562 952 557 q 982 559 975 559 q 1017 591 1000 591 m 307 502 q 326 472 326 502 l 326 453 q 317 445 326 449 l 301 445 q 282 488 294 445 q 307 502 296 502 z "},"y":{"ha":805,"x_min":14,"x_max":755,"o":"m 323 1129 l 337 1129 q 375 1048 353 1129 l 380 1045 q 432 1050 399 1045 q 489 1026 475 1042 l 492 1021 l 492 1007 q 389 961 492 992 q 367 912 367 950 q 345 855 367 873 q 315 801 321 806 l 315 790 q 427 817 376 817 l 462 817 q 492 823 465 817 l 497 823 q 565 771 532 823 q 573 749 573 755 q 513 730 564 737 q 353 649 400 657 q 337 627 337 641 q 353 603 341 603 q 427 638 360 603 q 473 663 462 648 l 478 660 q 535 665 512 665 q 538 663 538 665 l 543 665 l 559 665 q 589 630 589 665 q 427 399 589 600 q 321 215 385 341 q 275 123 316 215 q 258 109 275 112 l 258 79 q 253 66 258 66 l 256 52 l 256 20 q 261 14 256 14 l 267 14 q 367 128 309 48 l 372 131 l 380 131 q 391 106 388 131 l 397 106 q 399 112 397 112 l 397 117 l 397 128 l 399 144 l 394 158 q 470 286 405 184 q 508 326 485 319 q 538 375 508 331 q 597 413 553 413 q 611 416 602 416 q 625 405 623 410 l 630 408 l 641 408 q 665 364 665 390 q 630 229 665 286 q 606 188 630 211 q 587 174 606 182 l 587 166 q 603 147 587 151 q 649 150 631 150 q 665 139 652 150 l 684 142 q 752 77 741 116 q 755 66 755 72 l 755 63 q 703 -43 744 6 l 701 -43 q 695 -37 695 -43 q 730 36 730 -8 q 736 66 736 36 q 657 128 711 128 q 581 125 610 125 q 538 82 555 82 q 516 112 516 93 l 516 120 q 559 188 516 161 q 581 207 566 198 q 587 193 587 207 l 589 193 q 595 199 595 193 l 595 220 q 614 340 614 315 q 587 383 614 383 q 522 313 567 378 q 508 272 511 291 q 489 261 489 266 l 489 229 q 451 182 489 208 q 424 136 441 146 l 424 128 l 421 128 l 413 134 l 408 125 q 413 109 413 117 q 364 39 413 103 q 340 -7 357 39 q 321 -32 330 -7 q 302 -56 302 -32 q 280 -86 287 -84 l 261 -86 q 234 -116 261 -116 q 212 -127 224 -127 l 199 -127 q 163 -70 163 -90 q 180 -56 163 -64 q 242 112 204 -33 q 264 155 242 125 q 310 275 264 192 q 443 489 357 372 q 524 619 524 587 l 524 622 q 503 635 519 635 q 367 570 413 618 l 367 562 q 378 505 378 523 q 296 440 378 457 l 193 397 l 161 391 l 158 391 q 144 451 151 391 q 253 543 144 475 q 286 576 286 554 q 264 649 280 604 q 310 703 264 661 l 310 706 l 299 706 q 242 671 242 694 q 199 603 239 671 l 180 597 l 174 597 q 136 660 146 615 q 155 728 136 728 q 242 833 172 742 q 245 844 245 838 l 245 850 l 239 850 q 196 825 231 850 q 115 823 142 823 q 14 850 63 823 l 14 858 q 22 866 14 862 l 33 866 q 199 928 98 866 q 283 980 283 951 q 307 1110 291 1081 q 323 1129 320 1129 m 342 733 l 345 733 q 413 785 413 778 l 413 787 l 410 787 q 356 758 370 780 q 342 733 356 754 z "},"z":{"ha":876,"x_min":29,"x_max":843,"o":"m 547 1146 q 607 1105 565 1146 q 618 1084 618 1089 q 528 962 593 1032 q 406 878 438 880 q 311 821 352 821 q 230 788 239 788 l 224 788 q 181 802 212 788 q 170 807 170 802 l 170 810 l 173 815 l 192 810 q 273 837 202 810 l 276 837 l 290 829 l 292 829 q 333 872 292 854 q 431 948 387 903 q 509 1046 494 1004 q 550 1119 550 1105 l 550 1122 q 542 1141 550 1131 q 547 1146 543 1146 m 181 1070 l 184 1070 q 254 1038 254 1056 q 287 1013 273 1013 l 292 1013 l 387 1051 l 390 1051 q 395 1046 395 1050 q 273 913 387 1022 q 262 905 273 905 q 200 972 222 905 q 203 1000 200 976 q 181 1067 203 1034 l 181 1070 m 561 918 q 583 905 566 918 l 585 905 l 599 907 l 604 905 q 615 907 609 907 q 667 880 667 892 l 667 875 q 526 812 667 859 q 439 769 480 780 q 431 777 439 773 q 417 766 431 766 l 417 753 l 412 745 l 412 739 l 414 726 q 404 715 410 726 l 409 715 l 469 739 l 479 739 q 550 690 526 739 l 577 658 l 577 655 q 526 560 572 630 q 501 509 526 549 q 498 498 498 504 l 504 495 l 564 495 q 659 468 624 495 q 683 460 683 465 l 683 454 q 659 446 683 450 q 610 411 644 424 q 490 357 582 393 q 431 294 431 298 q 469 283 440 287 q 496 262 482 262 l 501 262 q 599 286 547 281 q 631 281 606 286 q 653 283 642 283 q 661 273 661 283 l 680 275 l 688 275 q 791 227 704 275 q 840 194 791 222 q 843 183 843 189 l 843 180 q 783 164 843 173 l 781 164 q 659 186 668 170 l 645 183 q 615 191 620 191 l 615 197 q 648 208 615 205 l 661 199 l 664 218 q 661 227 661 224 l 640 227 q 528 237 611 227 l 493 237 q 490 202 493 236 q 493 123 493 132 l 498 121 l 512 121 l 528 123 q 640 113 559 116 q 645 110 640 110 l 645 107 q 545 50 620 75 q 498 31 503 35 q 490 4 490 18 l 490 -9 q 504 -34 490 -22 l 547 -31 q 656 -80 597 -31 l 656 -85 q 591 -115 656 -111 q 485 -123 576 -120 q 319 -148 485 -132 l 281 -148 q 233 -104 260 -148 l 233 -96 q 306 -72 233 -78 q 395 -56 370 -64 l 395 -12 q 379 -1 390 -1 q 344 -7 355 -7 l 333 -7 q 281 58 298 -7 l 281 64 l 309 99 l 317 99 l 317 94 q 309 61 317 87 l 309 58 l 330 58 q 393 75 368 58 l 390 107 l 390 132 l 385 140 l 385 145 l 390 153 l 390 167 q 366 240 385 240 l 363 240 q 333 208 357 240 q 292 172 303 173 q 271 132 292 163 q 254 123 271 123 l 254 110 q 214 75 234 75 l 214 61 q 200 26 209 57 q 151 -64 157 -18 q 113 -110 136 -110 q 45 -42 45 -78 q 143 56 98 -6 q 162 75 162 62 q 227 145 162 81 q 262 175 233 161 q 281 229 262 187 l 287 227 l 290 227 q 336 292 290 250 l 338 302 l 330 302 l 314 300 l 309 302 q 140 229 243 281 q 113 221 136 221 q 51 259 78 221 l 51 264 q 138 305 51 294 q 241 368 200 330 q 300 408 293 397 q 246 506 246 442 q 243 533 243 507 l 243 563 q 295 701 276 701 q 363 772 309 728 l 363 777 l 360 777 q 276 745 348 777 q 189 707 243 736 q 165 688 165 695 q 181 669 168 688 l 181 663 q 151 636 181 642 l 132 636 q 29 688 83 636 l 29 696 q 86 715 29 715 l 219 764 q 271 785 229 764 q 322 810 298 785 q 374 831 340 810 q 436 861 397 831 q 558 918 475 876 l 561 918 m 344 666 q 317 557 330 635 q 328 547 319 547 q 368 585 368 565 q 333 609 334 603 l 333 614 l 336 614 q 374 604 345 609 l 387 614 q 393 609 388 609 l 395 609 q 431 631 408 631 q 455 625 450 628 q 463 650 463 635 l 463 663 l 460 663 q 409 655 426 655 l 387 655 q 344 669 380 655 l 344 666 m 328 444 l 328 435 l 338 435 q 349 446 342 435 q 344 452 349 452 l 336 452 q 328 444 332 452 m 536 452 q 545 430 536 432 l 550 430 q 561 435 557 435 l 561 444 q 545 452 558 452 l 536 452 m 260 335 l 271 335 q 333 351 271 346 q 376 365 333 360 q 420 422 420 389 q 262 340 338 376 l 260 335 z "},"{":{"ha":688,"x_min":0,"x_max":0,"o":""},"|":{"ha":688,"x_min":0,"x_max":0,"o":""},"}":{"ha":688,"x_min":0,"x_max":0,"o":""},"~":{"ha":688,"x_min":0,"x_max":0,"o":""},"¡":{"ha":456,"x_min":0,"x_max":0,"o":""},"¢":{"ha":772,"x_min":0,"x_max":0,"o":""},"£":{"ha":688,"x_min":0,"x_max":0,"o":""},"¤":{"ha":688,"x_min":0,"x_max":0,"o":""},"¥":{"ha":856,"x_min":0,"x_max":0,"o":""},"¦":{"ha":688,"x_min":0,"x_max":0,"o":""},"§":{"ha":688,"x_min":0,"x_max":0,"o":""},"¨":{"ha":694,"x_min":0,"x_max":0,"o":""},"©":{"ha":1135,"x_min":0,"x_max":0,"o":""},"ª":{"ha":439,"x_min":0,"x_max":0,"o":""},"«":{"ha":640,"x_min":0,"x_max":0,"o":""},"¬":{"ha":688,"x_min":0,"x_max":0,"o":""},"®":{"ha":1135,"x_min":0,"x_max":0,"o":""},"¯":{"ha":454,"x_min":0,"x_max":0,"o":""},"°":{"ha":457,"x_min":0,"x_max":0,"o":""},"±":{"ha":688,"x_min":0,"x_max":0,"o":""},"²":{"ha":688,"x_min":0,"x_max":0,"o":""},"³":{"ha":688,"x_min":0,"x_max":0,"o":""},"´":{"ha":694,"x_min":0,"x_max":0,"o":""},"µ":{"ha":800,"x_min":0,"x_max":0,"o":""},"¶":{"ha":694,"x_min":0,"x_max":0,"o":""},"·":{"ha":345,"x_min":0,"x_max":0,"o":""},"∙":{"ha":345,"x_min":0,"x_max":0,"o":""},"¸":{"ha":694,"x_min":0,"x_max":0,"o":""},"¹":{"ha":688,"x_min":0,"x_max":0,"o":""},"º":{"ha":487,"x_min":0,"x_max":0,"o":""},"»":{"ha":640,"x_min":0,"x_max":0,"o":""},"¼":{"ha":1158,"x_min":0,"x_max":0,"o":""},"½":{"ha":1332,"x_min":0,"x_max":0,"o":""},"¾":{"ha":1158,"x_min":0,"x_max":0,"o":""},"¿":{"ha":507,"x_min":0,"x_max":0,"o":""},"À":{"ha":1044,"x_min":0,"x_max":0,"o":""},"Á":{"ha":1044,"x_min":0,"x_max":0,"o":""},"Â":{"ha":1044,"x_min":0,"x_max":0,"o":""},"Ã":{"ha":1044,"x_min":0,"x_max":0,"o":""},"Ä":{"ha":1044,"x_min":0,"x_max":0,"o":""},"Å":{"ha":1044,"x_min":0,"x_max":0,"o":""},"Æ":{"ha":1436,"x_min":0,"x_max":0,"o":""},"Ç":{"ha":949,"x_min":0,"x_max":0,"o":""},"È":{"ha":781,"x_min":0,"x_max":0,"o":""},"É":{"ha":781,"x_min":0,"x_max":0,"o":""},"Ê":{"ha":781,"x_min":0,"x_max":0,"o":""},"Ë":{"ha":781,"x_min":0,"x_max":0,"o":""},"Ì":{"ha":446,"x_min":0,"x_max":0,"o":""},"Í":{"ha":446,"x_min":0,"x_max":0,"o":""},"Î":{"ha":446,"x_min":0,"x_max":0,"o":""},"Ï":{"ha":446,"x_min":0,"x_max":0,"o":""},"Ð":{"ha":1029,"x_min":0,"x_max":0,"o":""},"Ñ":{"ha":1054,"x_min":0,"x_max":0,"o":""},"Ò":{"ha":1095,"x_min":0,"x_max":0,"o":""},"Ó":{"ha":1095,"x_min":0,"x_max":0,"o":""},"Ô":{"ha":1095,"x_min":0,"x_max":0,"o":""},"Õ":{"ha":1095,"x_min":0,"x_max":0,"o":""},"Ö":{"ha":1095,"x_min":0,"x_max":0,"o":""},"×":{"ha":688,"x_min":0,"x_max":0,"o":""},"Ø":{"ha":1095,"x_min":0,"x_max":0,"o":""},"Ù":{"ha":1018,"x_min":0,"x_max":0,"o":""},"Ú":{"ha":1018,"x_min":0,"x_max":0,"o":""},"Û":{"ha":1018,"x_min":0,"x_max":0,"o":""},"Ü":{"ha":1018,"x_min":0,"x_max":0,"o":""},"Ý":{"ha":836,"x_min":0,"x_max":0,"o":""},"Þ":{"ha":760,"x_min":0,"x_max":0,"o":""},"ß":{"ha":848,"x_min":0,"x_max":0,"o":""},"à":{"ha":625,"x_min":0,"x_max":0,"o":""},"á":{"ha":625,"x_min":0,"x_max":0,"o":""},"â":{"ha":625,"x_min":0,"x_max":0,"o":""},"ã":{"ha":625,"x_min":0,"x_max":0,"o":""},"ä":{"ha":625,"x_min":0,"x_max":0,"o":""},"å":{"ha":625,"x_min":0,"x_max":0,"o":""},"æ":{"ha":986,"x_min":0,"x_max":0,"o":""},"ç":{"ha":614,"x_min":0,"x_max":0,"o":""},"è":{"ha":616,"x_min":0,"x_max":0,"o":""},"é":{"ha":616,"x_min":0,"x_max":0,"o":""},"ê":{"ha":616,"x_min":0,"x_max":0,"o":""},"ë":{"ha":616,"x_min":0,"x_max":0,"o":""},"ì":{"ha":349,"x_min":0,"x_max":0,"o":""},"í":{"ha":349,"x_min":0,"x_max":0,"o":""},"î":{"ha":349,"x_min":0,"x_max":0,"o":""},"ï":{"ha":349,"x_min":0,"x_max":0,"o":""},"ð":{"ha":772,"x_min":0,"x_max":0,"o":""},"ñ":{"ha":751,"x_min":0,"x_max":0,"o":""},"ò":{"ha":685,"x_min":0,"x_max":0,"o":""},"ó":{"ha":685,"x_min":0,"x_max":0,"o":""},"ô":{"ha":685,"x_min":0,"x_max":0,"o":""},"õ":{"ha":685,"x_min":0,"x_max":0,"o":""},"ö":{"ha":685,"x_min":0,"x_max":0,"o":""},"÷":{"ha":688,"x_min":0,"x_max":0,"o":""},"ø":{"ha":685,"x_min":0,"x_max":0,"o":""},"ù":{"ha":718,"x_min":0,"x_max":0,"o":""},"ú":{"ha":718,"x_min":0,"x_max":0,"o":""},"û":{"ha":718,"x_min":0,"x_max":0,"o":""},"ü":{"ha":718,"x_min":0,"x_max":0,"o":""},"ý":{"ha":589,"x_min":0,"x_max":0,"o":""},"þ":{"ha":685,"x_min":0,"x_max":0,"o":""},"ÿ":{"ha":589,"x_min":0,"x_max":0,"o":""},"ı":{"ha":349,"x_min":0,"x_max":0,"o":""},"ˆ":{"ha":694,"x_min":0,"x_max":0,"o":""},"ˇ":{"ha":694,"x_min":0,"x_max":0,"o":""},"ˉ":{"ha":694,"x_min":0,"x_max":0,"o":""},"˘":{"ha":694,"x_min":0,"x_max":0,"o":""},"˙":{"ha":694,"x_min":0,"x_max":0,"o":""},"˚":{"ha":694,"x_min":0,"x_max":0,"o":""},"˛":{"ha":694,"x_min":0,"x_max":0,"o":""},"˜":{"ha":694,"x_min":0,"x_max":0,"o":""},"˝":{"ha":694,"x_min":0,"x_max":0,"o":""},"–":{"ha":751,"x_min":0,"x_max":0,"o":""},"—":{"ha":1389,"x_min":0,"x_max":0,"o":""},"‘":{"ha":378,"x_min":0,"x_max":0,"o":""},"’":{"ha":378,"x_min":0,"x_max":0,"o":""},"‚":{"ha":378,"x_min":0,"x_max":0,"o":""},"“":{"ha":617,"x_min":0,"x_max":0,"o":""},"”":{"ha":617,"x_min":0,"x_max":0,"o":""},"„":{"ha":617,"x_min":0,"x_max":0,"o":""},"†":{"ha":688,"x_min":0,"x_max":0,"o":""},"‡":{"ha":688,"x_min":0,"x_max":0,"o":""},"•":{"ha":694,"x_min":0,"x_max":0,"o":""},"…":{"ha":1389,"x_min":0,"x_max":0,"o":""},"‹":{"ha":428,"x_min":0,"x_max":0,"o":""},"›":{"ha":428,"x_min":0,"x_max":0,"o":""},"⁄":{"ha":232,"x_min":0,"x_max":0,"o":""},"∕":{"ha":232,"x_min":0,"x_max":0,"o":""},"₣":{"ha":688,"x_min":0,"x_max":0,"o":""},"₤":{"ha":688,"x_min":0,"x_max":0,"o":""},"₧":{"ha":1375,"x_min":0,"x_max":0,"o":""},"€":{"ha":688,"x_min":0,"x_max":0,"o":""},"№":{"ha":1540,"x_min":0,"x_max":0,"o":""},"™":{"ha":1015,"x_min":0,"x_max":0,"o":""},"∂":{"ha":688,"x_min":0,"x_max":0,"o":""},"∆":{"ha":733,"x_min":0,"x_max":0,"o":""},"∏":{"ha":1027,"x_min":0,"x_max":0,"o":""},"∑":{"ha":818,"x_min":0,"x_max":0,"o":""},"−":{"ha":688,"x_min":0,"x_max":0,"o":""},"√":{"ha":688,"x_min":0,"x_max":0,"o":""},"∞":{"ha":688,"x_min":0,"x_max":0,"o":""},"∫":{"ha":451,"x_min":0,"x_max":0,"o":""},"≈":{"ha":688,"x_min":0,"x_max":0,"o":""},"≤":{"ha":688,"x_min":0,"x_max":0,"o":""},"≥":{"ha":688,"x_min":0,"x_max":0,"o":""},"":{"ha":728,"x_min":0,"x_max":0,"o":""},"ﬁ":{"ha":728,"x_min":0,"x_max":0,"o":""},"":{"ha":733,"x_min":0,"x_max":0,"o":""},"ﬂ":{"ha":733,"x_min":0,"x_max":0,"o":""}}}
